<svg width="220" height="220" viewBox="0 0 220 220" fill="none" xmlns="http://www.w3.org/2000/svg">
  <defs>
    <path id="cisa-top-arc" d="M 28 110 A 82 82 0 0 1 192 110" />
    <path id="cisa-bottom-arc" d="M 172 150 A 72 72 0 0 1 48 150" />
  </defs>
  <circle cx="110" cy="110" r="52" fill="#FFFFFF" stroke="#27293B" stroke-width="8" />
  <path d="M35 110C35 68.6 68.6 35 110 35C133.7 35 154.9 46 168.7 63.2" stroke="#27293B" stroke-width="16" stroke-linecap="round" />
  <path d="M184 86C184.7 93.9 184.7 101.8 184 110C180.6 148.3 148.4 178 110 178C86.9 178 66.2 167.2 52.7 150.4" stroke="#27293B" stroke-width="16" stroke-linecap="round" />
  <path d="M171 50L177 67L160 61" fill="#27293B" />
  <text fill="#27293B" font-family="Arial, Helvetica, sans-serif" font-size="12" font-weight="700" letter-spacing="1.8">
    <textPath href="#cisa-top-arc" startOffset="50%" text-anchor="middle">INFORMATION SECURITY MANAGEMENT</textPath>
  </text>
  <text x="110" y="122" fill="#27293B" font-family="Arial, Helvetica, sans-serif" font-size="48" font-weight="800" text-anchor="middle">CISA</text>
  <text fill="#27293B" font-family="Arial, Helvetica, sans-serif" font-size="14" font-weight="700" letter-spacing="4">
    <textPath href="#cisa-bottom-arc" startOffset="50%" text-anchor="middle">CERTIFIED</textPath>
  </text>
  <circle cx="58" cy="172" r="4" fill="#27293B" />
  <circle cx="74" cy="182" r="4" fill="#27293B" />
  <circle cx="90" cy="188" r="4" fill="#27293B" />
  <circle cx="130" cy="188" r="4" fill="#27293B" />
  <circle cx="146" cy="182" r="4" fill="#27293B" />
  <circle cx="162" cy="172" r="4" fill="#27293B" />
</svg>
