<svg width="20" height="20" viewBox="0 0 20 20" fill="none" xmlns="http://www.w3.org/2000/svg">
<path d="M4.15047 8.07051C2.49547 7.40884 1.66797 7.07801 1.66797 6.66634C1.66797 6.25467 2.49547 5.92467 4.15047 5.26217L6.49047 4.32634C8.14547 3.66384 8.9738 3.33301 10.0013 3.33301C11.0288 3.33301 11.8571 3.66384 13.5121 4.32634L15.8521 5.26217C17.5071 5.92384 18.3346 6.25467 18.3346 6.66634C18.3346 7.07801 17.5071 7.40801 15.8521 8.07051L13.5121 9.00717C11.8571 9.66884 11.0288 9.99967 10.0013 9.99967C8.9738 9.99967 8.14547 9.66884 6.49047 9.00717L4.15047 8.07051Z" stroke="url(#paint0_linear_346_1885)" stroke-width="1.25"/>
<path d="M4.8063 8.33301L4.15047 8.59551C2.49547 9.25717 1.66797 9.58884 1.66797 9.99967C1.66797 10.4105 2.49547 10.7413 4.15047 11.4038L6.49047 12.3405C8.14547 13.0022 8.9738 13.333 10.0013 13.333C11.0288 13.333 11.8571 13.0022 13.5121 12.3405L15.8521 11.4038C17.5071 10.7422 18.3346 10.4105 18.3346 9.99967C18.3346 9.58884 17.5071 9.25801 15.8521 8.59551L15.1963 8.33301" stroke="url(#paint1_linear_346_1885)" stroke-width="1.25"/>
<path d="M4.8063 11.666L4.15047 11.9285C2.49547 12.5902 1.66797 12.9218 1.66797 13.3327C1.66797 13.7435 2.49547 14.0743 4.15047 14.7368L6.49047 15.6735C8.14547 16.3352 8.9738 16.666 10.0013 16.666C11.0288 16.666 11.8571 16.3352 13.5121 15.6727L15.8521 14.7368C17.5071 14.0752 18.3346 13.7443 18.3346 13.3327C18.3346 12.9218 17.5071 12.591 15.8521 11.9285L15.1963 11.666" stroke="url(#paint2_linear_346_1885)" stroke-width="1.25"/>
<defs>
<linearGradient id="paint0_linear_346_1885" x1="10.0013" y1="3.33301" x2="10.0013" y2="9.99967" gradientUnits="userSpaceOnUse">
<stop stop-color="#B5020F"/>
<stop offset="1" stop-color="#302E2E"/>
</linearGradient>
<linearGradient id="paint1_linear_346_1885" x1="10.0013" y1="8.33301" x2="10.0013" y2="13.333" gradientUnits="userSpaceOnUse">
<stop stop-color="#B5020F"/>
<stop offset="1" stop-color="#302E2E"/>
</linearGradient>
<linearGradient id="paint2_linear_346_1885" x1="10.0013" y1="11.666" x2="10.0013" y2="16.666" gradientUnits="userSpaceOnUse">
<stop stop-color="#B5020F"/>
<stop offset="1" stop-color="#302E2E"/>
</linearGradient>
</defs>
</svg>
