<svg width="24" height="24" viewBox="0 0 24 24" fill="none" xmlns="http://www.w3.org/2000/svg">
<path d="M22 10.5V12C22 16.714 22 19.071 20.535 20.535C19.072 22 16.714 22 12 22C7.286 22 4.929 22 3.464 20.535C2 19.072 2 16.714 2 12C2 7.286 2 4.929 3.464 3.464C4.93 2 7.286 2 12 2H13.5" stroke="#B5020F" stroke-width="2" stroke-linecap="round"/>
<path d="M16.6519 3.45512L17.3009 2.80612C17.8173 2.28988 18.5176 1.99991 19.2478 2C19.978 2.00009 20.6782 2.29024 21.1944 2.80662C21.7107 3.323 22.0007 4.0233 22.0006 4.75347C22.0005 5.48365 21.7103 6.18388 21.1939 6.70012L20.5439 7.34912C20.5439 7.34912 19.1659 7.26812 17.9499 6.05112C16.7329 4.83512 16.6519 3.45612 16.6519 3.45612L10.6869 9.42012C10.2829 9.82412 10.0809 10.0261 9.90694 10.2491C9.70161 10.5125 9.52694 10.7951 9.38294 11.0971C9.26194 11.3521 9.17194 11.6231 8.99094 12.1651L8.41194 13.9001M8.41194 13.9001L8.03794 15.0221C7.99395 15.153 7.98735 15.2935 8.01886 15.4279C8.05037 15.5623 8.11875 15.6853 8.21631 15.7829C8.31388 15.8806 8.43676 15.9491 8.57113 15.9808C8.7055 16.0124 8.84604 16.006 8.97694 15.9621L10.0999 15.5881M8.41194 13.9001L10.0999 15.5881M20.5449 7.34812L14.5799 13.3131C14.1759 13.7171 13.9739 13.9191 13.7509 14.0931C13.4881 14.298 13.2038 14.4737 12.9029 14.6171C12.6479 14.7381 12.3769 14.8281 11.8349 15.0091L10.0999 15.5881" stroke="#B5020F" stroke-width="2"/>
</svg>
