<svg width="12" height="12" viewBox="0 0 12 12" fill="none" xmlns="http://www.w3.org/2000/svg">
<path d="M11.707 1C11.707 0.447714 11.2593 -7.61451e-07 10.707 -3.39982e-07L1.70703 -2.13542e-07C1.15475 -5.50717e-07 0.707032 0.447715 0.707032 0.999999C0.707032 1.55228 1.15475 2 1.70703 2L9.70703 2L9.70703 10C9.70703 10.5523 10.1547 11 10.707 11C11.2593 11 11.707 10.5523 11.707 10L11.707 1ZM0.707031 11L1.41414 11.7071L11.4141 1.70711L10.707 0.999999L9.99992 0.292893L-7.55191e-05 10.2929L0.707031 11Z" fill="white"/>
</svg>
