<svg width="32" height="32" viewBox="0 0 32 32" fill="none" xmlns="http://www.w3.org/2000/svg">
<rect x="1" y="1" width="30" height="30" rx="15" stroke="white" stroke-width="2"/>
<g clip-path="url(#clip0_200_356)">
<path d="M18.1534 22.5135L18.5147 21.9028L17.6547 21.3935L17.2927 22.0042L18.1534 22.5135ZM15.4827 21.9028L15.844 22.5135L16.704 22.0042L16.3434 21.3935L15.4827 21.9028ZM17.2927 22.0042C17.2615 22.054 17.2182 22.0952 17.1668 22.1237C17.1153 22.1522 17.0575 22.1671 16.9987 22.1671C16.9399 22.1671 16.8821 22.1522 16.8306 22.1237C16.7792 22.0952 16.7359 22.054 16.7047 22.0042L15.844 22.5135C16.3594 23.3848 17.6374 23.3848 18.1534 22.5135L17.2927 22.0042ZM15.9987 9.8335H17.9987V8.8335H15.9987V9.8335ZM23.1654 15.0002V15.6668H24.1654V15.0002H23.1654ZM10.832 15.6668V15.0002H9.83203V15.6668H10.832ZM9.83203 15.6668C9.83203 16.4368 9.83203 17.0388 9.86536 17.5248C9.8987 18.0148 9.96736 18.4228 10.124 18.8002L11.048 18.4175C10.95 18.1828 10.8927 17.8962 10.8627 17.4568C10.832 17.0128 10.832 16.4502 10.832 15.6668H9.83203ZM14.2007 20.1615C13.3634 20.1468 12.9247 20.0935 12.5807 19.9508L12.1987 20.8748C12.7354 21.0975 13.346 21.1475 14.1834 21.1622L14.2007 20.1615ZM10.124 18.8002C10.3167 19.2653 10.599 19.6879 10.955 20.0438C11.311 20.3998 11.7336 20.6822 12.1987 20.8748L12.5807 19.9508C11.8865 19.6633 11.3356 19.1117 11.048 18.4175L10.124 18.8002ZM23.1654 15.6668C23.1654 16.4502 23.1654 17.0128 23.1347 17.4568C23.1047 17.8962 23.0474 18.1828 22.95 18.4175L23.8734 18.8002C24.03 18.4228 24.0987 18.0148 24.1327 17.5248C24.166 17.0388 24.1654 16.4368 24.1654 15.6668H23.1654ZM19.814 21.1608C20.6514 21.1468 21.262 21.0975 21.7987 20.8748L21.416 19.9508C21.0727 20.0935 20.634 20.1468 19.7974 20.1615L19.814 21.1608ZM22.95 18.4175C22.6625 19.1117 22.1109 19.6633 21.4167 19.9508L21.7987 20.8748C22.2638 20.6822 22.6864 20.3998 23.0424 20.0438C23.3984 19.6879 23.6807 19.2653 23.8734 18.8002L22.95 18.4175ZM17.9987 9.8335C19.0994 9.8335 19.89 9.8335 20.5067 9.89283C21.116 9.95083 21.5034 10.0615 21.8127 10.2508L22.3347 9.39816C21.842 9.09683 21.2834 8.96216 20.6014 8.89683C19.9267 8.83283 19.08 8.8335 17.9987 8.8335V9.8335ZM24.1654 15.0002C24.1654 13.9188 24.1654 13.0728 24.1014 12.3975C24.0367 11.7155 23.902 11.1562 23.6007 10.6642L22.7474 11.1862C22.9374 11.4955 23.048 11.8828 23.106 12.4928C23.1647 13.1088 23.1654 13.8995 23.1654 15.0002H24.1654ZM21.812 10.2508C22.1935 10.4844 22.5142 10.8049 22.748 11.1862L23.6007 10.6642C23.2845 10.1481 22.8507 9.71432 22.3347 9.39816L21.812 10.2508ZM15.9987 8.8335C14.9174 8.8335 14.0714 8.8335 13.396 8.89683C12.714 8.96216 12.1547 9.09683 11.6627 9.39816L12.1847 10.2515C12.494 10.0615 12.8814 9.95083 13.4914 9.89283C14.1074 9.83416 14.898 9.8335 15.9987 9.8335V8.8335ZM10.832 15.0002C10.832 13.8995 10.832 13.1088 10.8914 12.4922C10.9494 11.8828 11.06 11.4955 11.2494 11.1862L10.3967 10.6648C10.0954 11.1568 9.9607 11.7155 9.89536 12.3975C9.83203 13.0735 9.83203 13.9188 9.83203 15.0002H10.832ZM11.6627 9.39816C11.1467 9.71432 10.7129 10.1488 10.3967 10.6648L11.25 11.1862C11.4835 10.805 11.8037 10.4845 12.1847 10.2508L11.6627 9.39816ZM16.3427 21.3935C16.208 21.1648 16.0894 20.9628 15.9734 20.8042C15.8545 20.6298 15.6994 20.4831 15.5187 20.3742L15.016 21.2388C15.0474 21.2575 15.0907 21.2908 15.1654 21.3935C15.246 21.5042 15.3374 21.6575 15.4827 21.9028L16.3427 21.3935ZM14.1834 21.1608C14.4767 21.1662 14.6614 21.1702 14.8027 21.1855C14.9347 21.2002 14.986 21.2215 15.016 21.2388L15.5187 20.3742C15.3324 20.2699 15.1256 20.2076 14.9127 20.1915C14.714 20.1695 14.4754 20.1662 14.2007 20.1615L14.1834 21.1608ZM18.5147 21.9028C18.66 21.6582 18.7514 21.5042 18.832 21.3935C18.9067 21.2908 18.95 21.2575 18.9814 21.2388L18.4787 20.3742C18.2854 20.4875 18.1454 20.6375 18.024 20.8042C17.9087 20.9628 17.7894 21.1642 17.654 21.3935L18.5147 21.9028ZM19.7974 20.1615C19.5227 20.1662 19.2834 20.1695 19.0847 20.1915C18.8774 20.2148 18.674 20.2608 18.4787 20.3742L18.9814 21.2388C19.0114 21.2215 19.0627 21.2002 19.1947 21.1855C19.336 21.1702 19.5214 21.1655 19.8147 21.1608L19.7974 20.1615Z" fill="white"/>
<path d="M14.332 14.0001H19.6654M14.332 16.3335H17.9987" stroke="white" stroke-linecap="round"/>
</g>
<defs>
<clipPath id="clip0_200_356">
<rect width="16" height="16" fill="white" transform="translate(9 8)"/>
</clipPath>
</defs>
</svg>
