<svg width="24" height="24" viewBox="0 0 24 24" fill="none" xmlns="http://www.w3.org/2000/svg">
<path fill-rule="evenodd" clip-rule="evenodd" d="M6.54125 5C6.60125 5.89 6.75125 6.76 6.99125 7.59L5.79125 8.79C5.38125 7.59 5.12125 6.32 5.03125 5H6.54125ZM16.3992 17.0195C17.2492 17.2595 18.1192 17.4095 18.9992 17.4695V18.9595C17.6792 18.8695 16.4092 18.6095 15.1992 18.2095L16.3992 17.0195ZM7.5 3H4C3.45 3 3 3.45 3 4C3 13.39 10.61 21 20 21C20.55 21 21 20.55 21 20V16.51C21 15.96 20.55 15.51 20 15.51C18.76 15.51 17.55 15.31 16.43 14.94C16.33 14.9 16.22 14.89 16.12 14.89C15.86 14.89 15.61 14.99 15.41 15.18L13.21 17.38C10.38 15.93 8.06 13.62 6.62 10.79L8.82 8.59C9.1 8.31 9.18 7.92 9.07 7.57C8.7 6.45 8.5 5.25 8.5 4C8.5 3.45 8.05 3 7.5 3Z" fill="white"/>
</svg>
