<svg width="18" height="18" viewBox="0 0 18 18" fill="none" xmlns="http://www.w3.org/2000/svg">
<path d="M9 16.5C13.1422 16.5 16.5 13.1422 16.5 9C16.5 4.85775 13.1422 1.5 9 1.5C4.85775 1.5 1.5 4.85775 1.5 9C1.5 10.2 1.782 11.334 2.28225 12.3397C2.41575 12.6067 2.46 12.912 2.38275 13.2007L1.9365 14.8702C1.8923 15.0355 1.89234 15.2094 1.93662 15.3746C1.98089 15.5398 2.06784 15.6905 2.18874 15.8114C2.30963 15.9324 2.46022 16.0194 2.6254 16.0638C2.79057 16.1082 2.9645 16.1083 3.12975 16.0643L4.79925 15.6172C5.08904 15.544 5.3956 15.5795 5.661 15.717C6.69821 16.2334 7.84134 16.5015 9 16.5Z" stroke="white" stroke-width="1.125"/>
<path d="M6 7.875H12M6 10.5H10.125" stroke="white" stroke-width="1.125" stroke-linecap="round"/>
</svg>
