<svg width="20" height="20" viewBox="0 0 20 20" fill="none" xmlns="http://www.w3.org/2000/svg">
<path d="M10.0013 18.3337C14.6038 18.3337 18.3346 14.6028 18.3346 10.0003C18.3346 5.39783 14.6038 1.66699 10.0013 1.66699C5.3988 1.66699 1.66797 5.39783 1.66797 10.0003C1.66797 14.6028 5.3988 18.3337 10.0013 18.3337Z" stroke="white" stroke-width="1.25"/>
<path d="M12.9198 7.50059L13.0632 7.64392C14.174 8.75475 14.7298 9.31059 14.7298 10.0006C14.7298 10.6906 14.174 11.2464 13.0632 12.3573L12.9198 12.5006M11.0815 5.97559L10.0032 10.0006L8.92484 14.0256M7.08651 7.50059L6.94401 7.64392C5.83234 8.75475 5.27734 9.31059 5.27734 10.0006C5.27734 10.6906 5.83234 11.2464 6.94401 12.3573L7.08651 12.5006" stroke="white" stroke-width="1.25" stroke-linecap="round"/>
</svg>
