<svg width="12" height="12" viewBox="0 0 12 12" fill="none" xmlns="http://www.w3.org/2000/svg">
<path d="M1.5 5.2085C1.5 3.6095 1.5 2.81 1.689 2.541C1.8775 2.2725 2.629 2.015 4.1325 1.5005L4.419 1.4025C5.2025 1.134 5.594 1 6 1C6.406 1 6.7975 1.134 7.581 1.4025L7.8675 1.5005C9.371 2.015 10.1225 2.2725 10.311 2.541C10.5 2.81 10.5 3.61 10.5 5.2085V5.9955C10.5 8.8145 8.3805 10.183 7.0505 10.7635C6.69 10.921 6.51 11 6 11C5.49 11 5.31 10.921 4.9495 10.7635C3.6195 10.1825 1.5 8.815 1.5 5.9955V5.2085Z" stroke="white" stroke-opacity="0.4" stroke-width="0.75"/>
<path d="M1.5 5.5L6 4L10.5 5.5M6 1V10.75" stroke="white" stroke-opacity="0.4" stroke-width="0.75"/>
</svg>
