<svg width="20" height="22" viewBox="0 0 20 22" fill="none" xmlns="http://www.w3.org/2000/svg">
<path d="M7.82793 7.82834C8.73506 6.92128 9.95613 6.39757 11.2386 6.36556C12.521 6.33354 13.7667 6.79567 14.7179 7.65634L14.8989 7.82834L17.7269 10.6573C18.648 11.58 19.1722 12.8259 19.1879 14.1295C19.2036 15.4331 18.7095 16.6913 17.811 17.6359C16.9124 18.5805 15.6805 19.1367 14.3777 19.1861C13.075 19.2355 11.8044 18.7742 10.8369 17.9003L10.6569 17.7283L8.53493 15.6063C8.35558 15.4264 8.25146 15.1849 8.2437 14.931C8.23595 14.677 8.32515 14.4296 8.49318 14.2391C8.66121 14.0485 8.89548 13.929 9.14841 13.9049C9.40133 13.8809 9.65394 13.9539 9.85493 14.1093L9.94893 14.1923L12.0709 16.3143C12.621 16.8676 13.365 17.1848 14.1451 17.1987C14.9251 17.2126 15.6799 16.922 16.2493 16.3887C16.8187 15.8553 17.1579 15.1211 17.195 14.3418C17.2321 13.5625 16.9641 12.7994 16.4479 12.2143L16.3129 12.0713L13.4849 9.24334C13.2063 8.96471 12.8756 8.74369 12.5116 8.59289C12.1476 8.4421 11.7574 8.36448 11.3634 8.36448C10.9694 8.36448 10.5793 8.4421 10.2153 8.59289C9.85125 8.74369 9.52051 8.96471 9.24193 9.24334C9.05429 9.43085 8.79985 9.53614 8.53458 9.53605C8.26931 9.53595 8.01494 9.43048 7.82743 9.24284C7.63992 9.0552 7.53464 8.80076 7.53473 8.53549C7.53482 8.27022 7.64029 8.01585 7.82793 7.82834ZM1.46393 1.46434C2.37106 0.557277 3.59213 0.0335731 4.87456 0.00155887C6.15699 -0.0304554 7.40267 0.431669 8.35393 1.29234L8.53493 1.46434L10.6559 3.58734C10.8353 3.7673 10.9394 4.00878 10.9472 4.26273C10.9549 4.51668 10.8657 4.76406 10.6977 4.95462C10.5296 5.14519 10.2954 5.26465 10.0425 5.28874C9.78953 5.31284 9.53692 5.23976 9.33593 5.08434L9.24193 5.00134L7.12093 2.88034C6.5699 2.3329 5.82802 2.02052 5.05137 2.00892C4.27471 1.99732 3.52383 2.2874 2.95669 2.81813C2.38956 3.34887 2.05038 4.07888 2.01051 4.8546C1.97064 5.63032 2.23319 6.39126 2.74293 6.97734L2.87793 7.12134L5.70693 9.95034C6.26952 10.5128 7.03244 10.8287 7.82793 10.8287C8.62342 10.8287 9.38635 10.5128 9.94893 9.95034C10.0418 9.85743 10.152 9.78372 10.2733 9.73341C10.3947 9.6831 10.5247 9.65719 10.6561 9.65714C10.7874 9.65709 10.9175 9.68292 11.0389 9.73314C11.1602 9.78336 11.2705 9.857 11.3634 9.94984C11.4563 10.0427 11.5301 10.1529 11.5804 10.2743C11.6307 10.3956 11.6566 10.5256 11.6566 10.657C11.6567 10.7883 11.6309 10.9184 11.5806 11.0398C11.5304 11.1611 11.4568 11.2714 11.3639 11.3643C10.4568 12.2714 9.23573 12.7951 7.9533 12.8271C6.67087 12.8591 5.42519 12.397 4.47393 11.5363L4.29193 11.3643L1.46393 8.53534C0.526577 7.5977 0 6.32616 0 5.00034C0 3.67452 0.526577 2.40198 1.46393 1.46434Z" fill="url(#paint0_linear_138_74)"/>
<defs>
<linearGradient id="paint0_linear_138_74" x1="9.59413" y1="0" x2="9.59413" y2="19.1897" gradientUnits="userSpaceOnUse">
<stop/>
<stop offset="1" stop-color="#B5020F"/>
</linearGradient>
</defs>
</svg>
