<svg width="16" height="16" viewBox="0 0 16 16" fill="none" xmlns="http://www.w3.org/2000/svg">
<g clip-path="url(#clip0_350_2723)">
<path d="M7.23588 9.4464C7.32985 9.35278 7.38279 9.22566 7.38304 9.09301C7.38329 8.96036 7.33083 8.83304 7.23721 8.73907C7.14359 8.64509 7.01647 8.59216 6.88382 8.59191C6.75117 8.59166 6.62385 8.64411 6.52988 8.73773L7.23588 9.4464ZM6.61188 4.94773C6.72328 5.0146 6.85633 5.03547 6.98286 5.00593C7.10938 4.97639 7.21944 4.89876 7.28972 4.78949C7.36 4.68021 7.38498 4.54786 7.35938 4.42049C7.33377 4.29311 7.25959 4.1807 7.15254 4.10707L6.61188 4.94773ZM8.33188 12.3331L7.97854 12.6864L8.00254 12.7091L8.33188 12.3331ZM11.8812 8.82107C11.8455 8.76591 11.7993 8.71832 11.7453 8.68102C11.6912 8.64371 11.6303 8.61743 11.5661 8.60365C11.4364 8.57583 11.3009 8.60068 11.1895 8.67273C11.0782 8.74478 10.9999 8.85813 10.9721 8.98785C10.9443 9.11756 10.9692 9.25301 11.0412 9.3644L11.8812 8.82107ZM8.68054 12.6384L9.03388 12.2851L9.02188 12.2731L9.00988 12.2631L8.68054 12.6384ZM13.1745 6.67773L9.27654 10.5637L9.98321 11.2717L13.8805 7.38507L13.1745 6.67773ZM6.32054 10.5637L5.40454 9.6504L4.69854 10.3597L5.61454 11.2731L6.32054 10.5637ZM5.40454 6.70773L9.30321 2.82107L8.59654 2.11307L4.69854 5.99973L5.40454 6.70773ZM11.6965 1.83307H12.0759V0.833066H11.6959L11.6965 1.83307ZM14.1652 3.91507V4.29307H15.1652V3.91507H14.1652ZM12.0759 1.83307C12.6999 1.83307 13.1185 1.8344 13.4299 1.87573C13.7272 1.91573 13.8519 1.9844 13.9332 2.06507L14.6392 1.35707C14.3412 1.05973 13.9705 0.939733 13.5625 0.885066C13.1692 0.831733 12.6719 0.833066 12.0759 0.833066V1.83307ZM15.1652 3.91507C15.1652 3.3204 15.1665 2.8244 15.1132 2.43173C15.0585 2.0244 14.9372 1.6544 14.6392 1.35707L13.9319 2.06507C14.0132 2.14573 14.0819 2.26973 14.1219 2.56507C14.1632 2.87573 14.1652 3.29173 14.1652 3.91507H15.1652ZM5.40521 9.65107C4.96321 9.21107 4.66854 8.91507 4.47788 8.66573C4.29588 8.4284 4.25721 8.2924 4.25721 8.17907H3.25721C3.25721 8.6004 3.43388 8.94707 3.68388 9.27373C3.92454 9.5884 4.27721 9.9384 4.69854 10.3591L5.40521 9.65107ZM5.61388 11.2717C6.03521 11.6917 6.38721 12.0437 6.70254 12.2837C7.02988 12.5331 7.37721 12.7084 7.79854 12.7084V11.7084C7.68321 11.7084 7.54654 11.6691 7.30788 11.4884C7.05854 11.2977 6.76188 11.0037 6.32054 10.5637L5.61388 11.2717ZM13.8805 7.38507C14.4132 6.85507 14.7839 6.49707 14.9792 6.02773L14.0559 5.6444C13.9552 5.88707 13.7645 6.08907 13.1745 6.67773L13.8805 7.38507ZM14.1652 4.29307C14.1652 5.12573 14.1565 5.40173 14.0559 5.6444L14.9792 6.02773C15.1739 5.5584 15.1652 5.04373 15.1652 4.29307H14.1652ZM9.30254 2.82173C9.89254 2.23307 10.0959 2.04307 10.3392 1.9424L9.95788 1.0184C9.48788 1.2124 9.12921 1.5824 8.59654 2.11307L9.30254 2.82173ZM11.6959 0.833066C10.9425 0.833066 10.4279 0.824399 9.95788 1.0184L10.3392 1.9424C10.5832 1.8424 10.8619 1.83307 11.6965 1.83307L11.6959 0.833066ZM5.86254 10.8151L7.23588 9.4464L6.52988 8.73773L5.15654 10.1071L5.86254 10.8151ZM7.15254 4.10707L6.73321 3.83707L6.19188 4.67773L6.61188 4.94773L7.15254 4.10707ZM6.73321 3.83707C6.31921 3.5704 5.98454 3.3544 5.69721 3.19973C5.40254 3.04107 5.12721 2.9284 4.82254 2.88373L4.67654 3.87307C4.82321 3.8944 4.98321 3.95107 5.22254 4.07973C5.46788 4.2124 5.76521 4.40307 6.19188 4.67773L6.73321 3.83707ZM1.83521 5.7024C2.20747 5.32606 2.58755 4.95753 2.97521 4.59707C3.13183 4.45219 3.29418 4.31363 3.46188 4.18173C3.61054 4.06707 3.70521 4.01107 3.74988 3.9924L3.36654 3.0684C3.19521 3.13973 3.01521 3.26307 2.85121 3.38973C2.67921 3.5224 2.49121 3.6844 2.30054 3.8584C1.91921 4.2064 1.50054 4.6244 1.12921 4.9944L1.83521 5.7024ZM4.82254 2.88373C4.32944 2.81242 3.82623 2.87624 3.36654 3.0684L3.74988 3.9924C4.04222 3.86931 4.36249 3.82851 4.67654 3.87307L4.82254 2.88373ZM1.47054 6.6484L1.72321 6.7484L2.09121 5.81907L1.83921 5.71907L1.47054 6.6484ZM2.72054 7.4024L3.36054 8.04107L4.06721 7.33307L3.42788 6.6944L2.72054 7.4024ZM1.72321 6.7484L1.79921 6.77907L2.17988 5.8544L2.09121 5.81907L1.72321 6.7484ZM3.42654 6.6944L3.35921 6.62773L2.66254 7.34507L2.72054 7.4024L3.42654 6.6944ZM1.79921 6.77907C2.12054 6.91107 2.41321 7.10373 2.66254 7.34573L3.35921 6.62773C3.0188 6.29737 2.61855 6.03491 2.17988 5.8544L1.79921 6.77907ZM1.12921 4.9944C1.01046 5.11264 0.92301 5.25859 0.874765 5.41907C0.826519 5.57956 0.818991 5.74953 0.852861 5.91365C0.88673 6.07777 0.960931 6.23088 1.06877 6.35915C1.1766 6.48743 1.31468 6.58683 1.47054 6.6484L1.83921 5.71907L1.83454 5.7164L1.83254 5.71107V5.7064L1.83521 5.7024L1.12921 4.9944ZM11.0419 9.3644L11.3125 9.7824L12.1519 9.23907L11.8812 8.82107L11.0419 9.3644ZM10.2845 14.1224L10.2285 14.1791L10.9352 14.8864L10.9912 14.8311L10.2845 14.1224ZM11.3125 9.7824C11.5885 10.2091 11.7792 10.5044 11.9125 10.7491C12.0412 10.9877 12.0979 11.1471 12.1192 11.2924L13.1085 11.1457C13.0632 10.8411 12.9499 10.5657 12.7912 10.2724C12.6359 9.98573 12.4192 9.6524 12.1519 9.23907L11.3125 9.7824ZM10.9912 14.8311C11.3625 14.4604 11.7812 14.0424 12.1305 13.6624C12.3045 13.4724 12.4672 13.2851 12.6005 13.1137C12.7272 12.9504 12.8512 12.7704 12.9225 12.5991L11.9999 12.2144C11.9475 12.3168 11.8838 12.4129 11.8099 12.5011C11.6777 12.6683 11.539 12.8302 11.3939 12.9864C11.0321 13.3728 10.6622 13.7515 10.2845 14.1224L10.9912 14.8311ZM12.1192 11.2924C12.1645 11.5964 12.1245 11.9151 11.9992 12.2144L12.9225 12.5991C13.1159 12.1402 13.1802 11.6385 13.1085 11.1457L12.1192 11.2924ZM9.00988 12.2631L8.66121 11.9571L8.00254 12.7091L8.35054 13.0144L9.00988 12.2631ZM10.2959 14.1977C10.1525 13.8384 10.0665 13.6211 9.95321 13.4151L9.07654 13.8951C9.15388 14.0351 9.21521 14.1871 9.36654 14.5684L10.2959 14.1977ZM8.32721 12.9931C8.61788 13.2824 8.73388 13.3991 8.83254 13.5251L9.61921 12.9077C9.47454 12.7231 9.30788 12.5577 9.03321 12.2844L8.32721 12.9931ZM9.95388 13.4144C9.85626 13.2367 9.74434 13.0673 9.61921 12.9077L8.83254 13.5251C8.9241 13.6415 9.00543 13.7648 9.07654 13.8951L9.95388 13.4144ZM11.1065 5.99973C10.9571 6.14837 10.755 6.2318 10.5442 6.2318C10.3335 6.2318 10.1313 6.14837 9.98188 5.99973L9.27588 6.70773C9.61276 7.04343 10.069 7.23192 10.5445 7.23192C11.0201 7.23192 11.4763 7.04343 11.8132 6.70773L11.1065 5.99973ZM9.98188 5.99973C9.908 5.92659 9.84936 5.83952 9.80934 5.74357C9.76932 5.64762 9.74871 5.54469 9.74871 5.44073C9.74871 5.33677 9.76932 5.23384 9.80934 5.13789C9.84936 5.04194 9.908 4.95488 9.98188 4.88173L9.27588 4.17373C9.10898 4.33976 8.97653 4.53713 8.88616 4.75451C8.79579 4.97189 8.74926 5.20498 8.74926 5.4404C8.74926 5.67582 8.79579 5.90891 8.88616 6.12629C8.97653 6.34366 9.10898 6.54104 9.27588 6.70707L9.98188 5.99973ZM9.98188 4.88173C10.1313 4.7329 10.3336 4.64933 10.5445 4.64933C10.7555 4.64933 10.9578 4.7329 11.1072 4.88173L11.8132 4.17373C11.4763 3.83804 11.0201 3.64954 10.5445 3.64954C10.069 3.64954 9.61276 3.83804 9.27588 4.17373L9.98188 4.88173ZM11.1072 4.88173C11.1811 4.95488 11.2397 5.04194 11.2797 5.13789C11.3198 5.23384 11.3404 5.33677 11.3404 5.44073C11.3404 5.54469 11.3198 5.64762 11.2797 5.74357C11.2397 5.83952 11.1804 5.92659 11.1065 5.99973L11.8132 6.70773C11.9801 6.54171 12.1126 6.34433 12.2029 6.12695C12.2933 5.90958 12.3398 5.67648 12.3398 5.44107C12.3398 5.20565 12.2933 4.97256 12.2029 4.75518C12.1126 4.5378 11.9801 4.33976 11.8132 4.17373L11.1072 4.88173ZM10.2279 14.1784C10.2335 14.1739 10.2398 14.1703 10.2465 14.1677L10.2619 14.1671L10.2779 14.1751C10.2859 14.1817 10.2917 14.1893 10.2952 14.1977L9.36588 14.5677C9.62188 15.2097 10.4539 15.3651 10.9339 14.8864L10.2279 14.1784ZM9.27654 10.5637C8.93588 10.9037 8.67854 11.1591 8.45788 11.3491C8.23721 11.5404 8.08788 11.6331 7.97121 11.6764L8.31654 12.6151C8.60188 12.5097 8.85921 12.3244 9.11188 12.1057C9.36454 11.8871 9.65054 11.6024 9.98188 11.2724L9.27654 10.5637ZM7.97121 11.6764C7.91599 11.698 7.85783 11.7088 7.79854 11.7084V12.7084C7.9781 12.708 8.15032 12.6768 8.31654 12.6151L7.97121 11.6764ZM8.68454 11.9797L8.49788 11.7924L7.78988 12.4991L7.97788 12.6864L8.68454 11.9797ZM4.69854 5.99973C4.37521 6.3224 4.09588 6.6004 3.87854 6.84773C3.66254 7.0944 3.47788 7.3444 3.36788 7.6184L4.29521 7.99173C4.34254 7.87373 4.43988 7.72507 4.63054 7.50707C4.82054 7.2904 5.07254 7.03907 5.40454 6.70707L4.69854 5.99973ZM3.36788 7.6184C3.29458 7.79622 3.25698 7.98673 3.25721 8.17907H4.25721C4.25721 8.11907 4.26788 8.0604 4.29521 7.99173L3.36788 7.6184ZM3.36054 8.04107L3.47788 8.1584L4.18454 7.45173L4.06854 7.33307L3.36054 8.04107Z" fill="white"/>
</g>
<defs>
<clipPath id="clip0_350_2723">
<rect width="16" height="16" fill="white"/>
</clipPath>
</defs>
</svg>
