<svg width="18" height="18" viewBox="0 0 18 18" fill="none" xmlns="http://www.w3.org/2000/svg">
<g clip-path="url(#clip0_346_2502)">
<path d="M8.14182 10.6275C8.24755 10.5222 8.3071 10.3792 8.30738 10.2299C8.30766 10.0807 8.24865 9.93748 8.14332 9.83175C8.038 9.72603 7.89499 9.66648 7.74576 9.6662C7.59653 9.66592 7.4533 9.72493 7.34757 9.83026L8.14182 10.6275ZM7.43983 5.5665C7.56515 5.64173 7.71484 5.66521 7.85718 5.63198C7.99952 5.59875 8.12333 5.51141 8.2024 5.38848C8.28147 5.26554 8.30957 5.11665 8.28077 4.97335C8.25196 4.83005 8.1685 4.70359 8.04807 4.62075L7.43983 5.5665ZM9.37482 13.875L8.97733 14.2725L9.00432 14.298L9.37482 13.875ZM13.3678 9.92401C13.3277 9.86196 13.2757 9.80842 13.2149 9.76645C13.1541 9.72448 13.0856 9.69491 13.0133 9.67941C12.8674 9.64812 12.715 9.67607 12.5897 9.75713C12.4644 9.83819 12.3764 9.9657 12.3451 10.1116C12.3138 10.2576 12.3418 10.4099 12.4228 10.5353L13.3678 9.92401ZM9.76707 14.2185L10.1646 13.821L10.1511 13.8075L10.1376 13.7963L9.76707 14.2185ZM14.8228 7.51275L10.4376 11.8845L11.2326 12.681L15.6171 8.30851L14.8228 7.51275ZM7.11207 11.8845L6.08157 10.857L5.28732 11.655L6.31782 12.6825L7.11207 11.8845ZM6.08157 7.5465L10.4676 3.174L9.67257 2.3775L5.28732 6.75L6.08157 7.5465ZM13.1601 2.0625H13.5868V0.937505H13.1593L13.1601 2.0625ZM15.9373 4.40475V4.83H17.0623V4.40475H15.9373ZM13.5868 2.0625C14.2888 2.0625 14.7598 2.064 15.1101 2.1105C15.4446 2.1555 15.5848 2.23275 15.6763 2.3235L16.4706 1.527C16.1353 1.1925 15.7183 1.0575 15.2593 0.996005C14.8168 0.936005 14.2573 0.937505 13.5868 0.937505V2.0625ZM17.0623 4.40475C17.0623 3.73575 17.0638 3.17775 17.0038 2.736C16.9423 2.27775 16.8058 1.8615 16.4706 1.527L15.6748 2.3235C15.7663 2.41425 15.8436 2.55375 15.8886 2.886C15.9351 3.2355 15.9373 3.7035 15.9373 4.40475H17.0623ZM6.08232 10.8578C5.58507 10.3628 5.25357 10.0298 5.03907 9.74925C4.83432 9.48225 4.79082 9.32926 4.79082 9.20175H3.66582C3.66582 9.67575 3.86457 10.0658 4.14582 10.4333C4.41657 10.7873 4.81332 11.181 5.28732 11.6543L6.08232 10.8578ZM6.31707 12.681C6.79108 13.1535 7.18707 13.5495 7.54182 13.8195C7.91007 14.1 8.30082 14.2973 8.77482 14.2973V13.1723C8.64507 13.1723 8.49132 13.128 8.22282 12.9248C7.94232 12.7103 7.60857 12.3795 7.11207 11.8845L6.31707 12.681ZM15.6171 8.30851C16.2163 7.71226 16.6333 7.3095 16.8531 6.7815L15.8143 6.35025C15.7011 6.62325 15.4866 6.8505 14.8228 7.51275L15.6171 8.30851ZM15.9373 4.83C15.9373 5.76675 15.9276 6.07725 15.8143 6.35025L16.8531 6.7815C17.0721 6.2535 17.0623 5.6745 17.0623 4.83H15.9373ZM10.4668 3.17475C11.1306 2.5125 11.3593 2.29875 11.6331 2.1855L11.2041 1.146C10.6753 1.36425 10.2718 1.7805 9.67257 2.3775L10.4668 3.17475ZM13.1593 0.937505C12.3118 0.937505 11.7328 0.927755 11.2041 1.146L11.6331 2.1855C11.9076 2.073 12.2211 2.0625 13.1601 2.0625L13.1593 0.937505ZM6.59682 12.1673L8.14182 10.6275L7.34757 9.83026L5.80257 11.3708L6.59682 12.1673ZM8.04807 4.62075L7.57632 4.317L6.96732 5.26275L7.43983 5.5665L8.04807 4.62075ZM7.57632 4.317C7.11057 4.017 6.73408 3.774 6.41082 3.6C6.07933 3.4215 5.76957 3.29475 5.42682 3.2445L5.26258 4.3575C5.42758 4.3815 5.60757 4.44525 5.87682 4.59C6.15282 4.73925 6.48732 4.95375 6.96732 5.26275L7.57632 4.317ZM2.06607 6.4155C2.48487 5.99212 2.91246 5.57753 3.34857 5.172C3.52477 5.00902 3.70742 4.85314 3.89607 4.70475C4.06332 4.57575 4.16982 4.51275 4.22007 4.49175L3.78882 3.45225C3.59607 3.5325 3.39357 3.67125 3.20907 3.81375C3.01557 3.963 2.80407 4.14525 2.58957 4.341C2.16057 4.7325 1.68957 5.20275 1.27182 5.619L2.06607 6.4155ZM5.42682 3.2445C4.87208 3.16428 4.30597 3.23608 3.78882 3.45225L4.22007 4.49175C4.54897 4.35328 4.90926 4.30737 5.26258 4.3575L5.42682 3.2445ZM1.65582 7.47975L1.94007 7.59225L2.35407 6.54675L2.07057 6.43425L1.65582 7.47975ZM3.06207 8.328L3.78207 9.0465L4.57708 8.25L3.85782 7.5315L3.06207 8.328ZM1.94007 7.59225L2.02557 7.62675L2.45382 6.5865L2.35407 6.54675L1.94007 7.59225ZM3.85632 7.5315L3.78057 7.4565L2.99682 8.2635L3.06207 8.328L3.85632 7.5315ZM2.02557 7.62675C2.38707 7.77525 2.71632 7.992 2.99682 8.26425L3.78057 7.4565C3.39761 7.08485 2.94733 6.78958 2.45382 6.5865L2.02557 7.62675ZM1.27182 5.619C1.13823 5.75202 1.03985 5.91621 0.985575 6.09676C0.931299 6.27731 0.92283 6.46852 0.960933 6.65316C0.999037 6.8378 1.08251 7.01004 1.20383 7.15435C1.32514 7.29866 1.48048 7.41049 1.65582 7.47975L2.07057 6.43425L2.06532 6.43125L2.06307 6.42525V6.42L2.06607 6.4155L1.27182 5.619ZM12.4236 10.5353L12.7281 11.0055L13.6723 10.3943L13.3678 9.92401L12.4236 10.5353ZM11.5716 15.888L11.5086 15.9518L12.3036 16.7475L12.3666 16.6853L11.5716 15.888ZM12.7281 11.0055C13.0386 11.4855 13.2531 11.8178 13.4031 12.093C13.5478 12.3615 13.6116 12.5408 13.6356 12.7043L14.7486 12.5393C14.6976 12.1965 14.5701 11.8868 14.3916 11.5568C14.2168 11.2343 13.9731 10.8593 13.6723 10.3943L12.7281 11.0055ZM12.3666 16.6853C12.7843 16.2683 13.2553 15.798 13.6483 15.3705C13.8441 15.1568 14.0271 14.946 14.1771 14.7533C14.3196 14.5695 14.4591 14.367 14.5393 14.1743L13.5013 13.7415C13.4424 13.8567 13.3707 13.9649 13.2876 14.064C13.1389 14.2522 12.9828 14.4343 12.8196 14.61C12.4125 15.0447 11.9964 15.4707 11.5716 15.888L12.3666 16.6853ZM13.6356 12.7043C13.6866 13.0463 13.6416 13.4048 13.5006 13.7415L14.5393 14.1743C14.7568 13.658 14.8292 13.0936 14.7486 12.5393L13.6356 12.7043ZM10.1376 13.7963L9.74533 13.452L9.00432 14.298L9.39582 14.6415L10.1376 13.7963ZM11.5843 15.9728C11.4231 15.5685 11.3263 15.324 11.1988 15.0923L10.2126 15.6323C10.2996 15.7898 10.3686 15.9608 10.5388 16.3898L11.5843 15.9728ZM9.36957 14.6175C9.69658 14.943 9.82708 15.0743 9.93808 15.216L10.8231 14.5215C10.6603 14.3138 10.4728 14.1278 10.1638 13.8203L9.36957 14.6175ZM11.1996 15.0915C11.0898 14.8916 10.9638 14.701 10.8231 14.5215L9.93808 15.216C10.0411 15.347 10.1326 15.4858 10.2126 15.6323L11.1996 15.0915ZM12.4963 6.75C12.3282 6.91722 12.1008 7.01108 11.8637 7.01108C11.6266 7.01108 11.3992 6.91722 11.2311 6.75L10.4368 7.5465C10.8158 7.92416 11.329 8.13622 11.8641 8.13622C12.3991 8.13622 12.9123 7.92416 13.2913 7.5465L12.4963 6.75ZM11.2311 6.75C11.148 6.66771 11.082 6.56977 11.037 6.46182C10.9919 6.35388 10.9688 6.23809 10.9688 6.12113C10.9688 6.00417 10.9919 5.88838 11.037 5.78043C11.082 5.67249 11.148 5.57454 11.2311 5.49225L10.4368 4.69575C10.2491 4.88254 10.1001 5.10458 9.99839 5.34913C9.89672 5.59368 9.84438 5.85591 9.84438 6.12075C9.84438 6.3856 9.89672 6.64783 9.99839 6.89238C10.1001 7.13693 10.2491 7.35897 10.4368 7.54575L11.2311 6.75ZM11.2311 5.49225C11.3992 5.32481 11.6268 5.2308 11.8641 5.2308C12.1013 5.2308 12.329 5.32481 12.4971 5.49225L13.2913 4.69575C12.9123 4.3181 12.3991 4.10604 11.8641 4.10604C11.329 4.10604 10.8158 4.3181 10.4368 4.69575L11.2311 5.49225ZM12.4971 5.49225C12.5802 5.57454 12.6462 5.67249 12.6912 5.78043C12.7362 5.88838 12.7594 6.00417 12.7594 6.12113C12.7594 6.23809 12.7362 6.35388 12.6912 6.46182C12.6462 6.56977 12.5794 6.66771 12.4963 6.75L13.2913 7.5465C13.4791 7.35972 13.6281 7.13768 13.7298 6.89313C13.8314 6.64858 13.8838 6.38635 13.8838 6.1215C13.8838 5.85666 13.8314 5.59443 13.7298 5.34988C13.6281 5.10533 13.4791 4.88254 13.2913 4.69575L12.4971 5.49225ZM11.5078 15.951C11.5141 15.9459 11.5212 15.9418 11.5288 15.939L11.5461 15.9383L11.5641 15.9473C11.5731 15.9548 11.5796 15.9633 11.5836 15.9728L10.5381 16.389C10.8261 17.1113 11.7621 17.286 12.3021 16.7475L11.5078 15.951ZM10.4376 11.8845C10.0543 12.267 9.76482 12.5543 9.51657 12.768C9.26832 12.9833 9.10032 13.0875 8.96907 13.1363L9.35757 14.1923C9.67857 14.0738 9.96807 13.8653 10.2523 13.6193C10.5366 13.3733 10.8583 13.053 11.2311 12.6818L10.4376 11.8845ZM8.96907 13.1363C8.90695 13.1605 8.84152 13.1728 8.77482 13.1723V14.2973C8.97682 14.2968 9.17058 14.2618 9.35757 14.1923L8.96907 13.1363ZM9.77157 13.4775L9.56157 13.2668L8.76507 14.0618L8.97657 14.2725L9.77157 13.4775ZM5.28732 6.75C4.92357 7.113 4.60932 7.42576 4.36482 7.70401C4.12182 7.9815 3.91407 8.26275 3.79032 8.571L4.83357 8.991C4.88682 8.85825 4.99632 8.691 5.21082 8.44575C5.42457 8.202 5.70808 7.91925 6.08157 7.54575L5.28732 6.75ZM3.79032 8.571C3.70787 8.77106 3.66557 8.98538 3.66582 9.20175H4.79082C4.79082 9.13425 4.80282 9.06825 4.83357 8.991L3.79032 8.571ZM3.78207 9.0465L3.91407 9.1785L4.70907 8.3835L4.57857 8.25L3.78207 9.0465Z" fill="#171717"/>
</g>
<defs>
<clipPath id="clip0_346_2502">
<rect width="18" height="18" fill="white"/>
</clipPath>
</defs>
</svg>
