<svg width="24" height="24" viewBox="0 0 24 24" fill="none" xmlns="http://www.w3.org/2000/svg">
<path d="M12.3729 12.6451C12.4447 12.5761 12.502 12.4935 12.5415 12.4021C12.581 12.3107 12.6019 12.2123 12.603 12.1127C12.6041 12.0131 12.5854 11.9144 12.5479 11.8221C12.5104 11.7299 12.4549 11.646 12.3847 11.5754C12.3144 11.5048 12.2308 11.449 12.1387 11.411C12.0467 11.3731 11.948 11.3539 11.8484 11.3545C11.7488 11.3551 11.6504 11.3756 11.5588 11.4147C11.4672 11.4537 11.3843 11.5107 11.3149 11.5821L12.3729 12.6451ZM7.70992 10.2821L8.23992 9.75211V9.75011L7.70992 10.2821ZM11.4389 6.79411C11.5218 6.85008 11.615 6.88893 11.713 6.90837C11.8111 6.92781 11.9121 6.92744 12.01 6.90728C12.1079 6.88713 12.2009 6.8476 12.2833 6.79101C12.3657 6.73443 12.436 6.66193 12.49 6.57779C12.544 6.49365 12.5807 6.39956 12.5978 6.30105C12.6149 6.20254 12.6121 6.10161 12.5897 6.00418C12.5672 5.90675 12.5255 5.8148 12.467 5.73373C12.4084 5.65266 12.3343 5.58411 12.2489 5.53211L11.4389 6.79411ZM13.7339 16.3371L13.2039 16.8681L13.2399 16.9021L13.7339 16.3371ZM18.4469 11.7061C18.3947 11.6207 18.3258 11.5465 18.2444 11.4881C18.1631 11.4297 18.0708 11.3882 17.9731 11.366C17.8755 11.3439 17.7743 11.3415 17.6757 11.359C17.5771 11.3766 17.483 11.4137 17.399 11.4682C17.3149 11.5227 17.2427 11.5935 17.1864 11.6764C17.1302 11.7593 17.0911 11.8526 17.0716 11.9508C17.052 12.0491 17.0523 12.1502 17.0724 12.2483C17.0926 12.3465 17.1322 12.4395 17.1889 12.5221L18.4469 11.7061ZM14.1889 16.7361L14.7189 16.2041L14.7009 16.1871L14.6829 16.1721L14.1889 16.7361ZM6.07692 13.4171C6.21361 13.2757 6.28929 13.0863 6.28768 12.8897C6.28606 12.693 6.20727 12.5049 6.06828 12.3657C5.92929 12.2266 5.74122 12.1476 5.54457 12.1458C5.34792 12.144 5.15844 12.2196 5.01692 12.3561L6.07692 13.4171ZM3.00292 13.4171C3.13961 13.2757 3.21529 13.0863 3.21368 12.8897C3.21206 12.693 3.13327 12.5049 2.99428 12.3657C2.85529 12.2266 2.66722 12.1476 2.47057 12.1458C2.27392 12.144 2.08444 12.2196 1.94292 12.3561L3.00292 13.4171ZM11.6069 18.9871C11.6786 18.918 11.7358 18.8352 11.7751 18.7437C11.8145 18.6523 11.8352 18.5539 11.8361 18.4543C11.837 18.3547 11.8181 18.2559 11.7804 18.1637C11.7428 18.0715 11.6871 17.9878 11.6167 17.9173C11.5463 17.8469 11.4626 17.7911 11.3705 17.7534C11.2783 17.7156 11.1796 17.6966 11.08 17.6974C10.9804 17.6982 10.882 17.7189 10.7904 17.7581C10.6989 17.7974 10.6161 17.8545 10.5469 17.9261L11.6069 18.9871ZM11.6069 22.0591C11.6786 21.99 11.7358 21.9072 11.7751 21.8157C11.8145 21.7243 11.8352 21.6259 11.8361 21.5263C11.837 21.4267 11.8181 21.3279 11.7804 21.2357C11.7428 21.1435 11.6871 21.0598 11.6167 20.9893C11.5463 20.9189 11.4626 20.8631 11.3705 20.8254C11.2783 20.7876 11.1796 20.7686 11.08 20.7694C10.9804 20.7702 10.882 20.7909 10.7904 20.8301C10.6989 20.8694 10.6161 20.9265 10.5469 20.9981L11.6069 22.0591ZM10.6339 17.1861C10.7664 17.0439 10.8385 16.8559 10.8351 16.6616C10.8317 16.4673 10.753 16.2819 10.6155 16.1445C10.4781 16.0071 10.2927 15.9284 10.0984 15.9249C9.90414 15.9215 9.71609 15.9936 9.57392 16.1261L10.6339 17.1861ZM7.46992 18.2271C7.33323 18.3685 7.25755 18.5579 7.25916 18.7546C7.26078 18.9512 7.33957 19.1394 7.47856 19.2785C7.61755 19.4176 7.80562 19.4966 8.00227 19.4984C8.19892 19.5002 8.3884 19.4247 8.52992 19.2881L7.46992 18.2271ZM7.85692 14.4131C7.93061 14.3444 7.98971 14.2616 8.0307 14.1696C8.07169 14.0776 8.09373 13.9783 8.09551 13.8776C8.09729 13.7769 8.07876 13.6769 8.04104 13.5835C8.00332 13.4901 7.94718 13.4053 7.87596 13.3341C7.80474 13.2628 7.71991 13.2067 7.62652 13.169C7.53313 13.1313 7.4331 13.1127 7.3324 13.1145C7.23169 13.1163 7.13238 13.1383 7.04038 13.1793C6.94838 13.2203 6.86558 13.2794 6.79692 13.3531L7.85692 14.4131ZM4.67992 15.4701C4.60832 15.5393 4.55122 15.6221 4.51196 15.7136C4.4727 15.8052 4.45205 15.9036 4.45124 16.0032C4.45042 16.1027 4.46944 16.2015 4.5072 16.2937C4.54495 16.3858 4.60068 16.4695 4.67113 16.5399C4.74158 16.6103 4.82535 16.6659 4.91754 16.7036C5.00973 16.7413 5.1085 16.7602 5.20808 16.7593C5.30766 16.7584 5.40607 16.7376 5.49755 16.6983C5.58904 16.6589 5.67177 16.6018 5.74092 16.5301L4.67992 15.4701ZM7.45992 17.5801C7.53417 17.5122 7.594 17.4301 7.63585 17.3386C7.6777 17.2471 7.70073 17.1482 7.70354 17.0476C7.70636 16.947 7.68892 16.8469 7.65226 16.7533C7.6156 16.6596 7.56046 16.5742 7.49014 16.5023C7.41981 16.4304 7.33573 16.3733 7.24291 16.3345C7.15008 16.2958 7.0504 16.2761 6.9498 16.2766C6.8492 16.2771 6.74974 16.2979 6.65733 16.3377C6.56493 16.3775 6.48147 16.4354 6.41192 16.5081L7.45992 17.5801ZM4.70192 18.1801C4.62998 18.2486 4.57236 18.3307 4.53242 18.4217C4.49248 18.5127 4.47101 18.6107 4.46926 18.71C4.4675 18.8093 4.48551 18.908 4.52221 19.0003C4.55892 19.0927 4.61361 19.1768 4.68309 19.2478C4.75257 19.3188 4.83547 19.3753 4.92697 19.414C5.01847 19.4527 5.11675 19.4728 5.2161 19.4732C5.31545 19.4736 5.41389 19.4543 5.5057 19.4163C5.59751 19.3784 5.68086 19.3225 5.75092 19.2521L4.70192 18.1801ZM19.9859 8.89511L14.8999 13.9601L15.9589 15.0231L21.0449 9.95911L19.9859 8.89511ZM11.1779 13.9601L9.98392 12.7711L8.92492 13.8331L10.1199 15.0231L11.1779 13.9601ZM9.98392 9.07511L15.0699 4.01011L14.0119 2.94711L8.92492 8.01211L9.98392 9.07511ZM18.1269 2.75011H18.6219V1.25011H18.1269V2.75011ZM21.2509 5.36511L21.2499 5.85811H22.7509L22.7499 5.36511H21.2509ZM18.6199 2.75011C19.4379 2.75011 19.9759 2.75211 20.3749 2.80511C20.7529 2.85511 20.8909 2.94011 20.9749 3.02511L22.0349 1.96111C21.6249 1.55311 21.1169 1.39111 20.5749 1.31811C20.0529 1.24811 19.3969 1.25011 18.6219 1.25011L18.6199 2.75011ZM22.7499 5.36511C22.7499 4.59311 22.7519 3.93911 22.6809 3.41911C22.6079 2.87711 22.4459 2.37011 22.0349 1.96111L20.9759 3.02411C21.0599 3.10811 21.1439 3.24411 21.1949 3.61911C21.2479 4.01611 21.2509 4.55111 21.2509 5.36511H22.7499ZM9.98392 12.7711C9.40492 12.1961 9.02592 11.8161 8.78292 11.4981C8.55192 11.1971 8.51492 11.0411 8.51492 10.9231H7.01492C7.01492 11.5031 7.25892 11.9761 7.59192 12.4101C7.91192 12.8271 8.37692 13.2871 8.92492 13.8331L9.98392 12.7711ZM10.1199 15.0241C10.6679 15.5701 11.1319 16.0341 11.5499 16.3521C11.9859 16.6831 12.4599 16.9251 13.0389 16.9251V15.4251C12.9179 15.4251 12.7599 15.3871 12.4579 15.1571C12.1379 14.9151 11.7569 14.5371 11.1779 13.9611L10.1199 15.0241ZM21.0449 9.96011C21.7329 9.27411 22.2349 8.79211 22.4989 8.15811L21.1149 7.58211C20.9919 7.87611 20.7619 8.12411 19.9859 8.89711L21.0449 9.96011ZM21.2499 5.85911C21.2499 6.95211 21.2369 7.28911 21.1149 7.58211L22.4989 8.15811C22.7619 7.52411 22.7499 6.82911 22.7499 5.85911H21.2499ZM15.0699 4.01011C15.8459 3.23711 16.0959 3.00811 16.3919 2.88511L15.8199 1.50011C15.1839 1.76211 14.7009 2.26111 14.0119 2.94711L15.0699 4.01011ZM18.1259 1.25011C17.1509 1.25011 16.4549 1.23711 15.8199 1.49911L16.3919 2.88511C16.6879 2.76311 17.0289 2.75011 18.1259 2.75011V1.25011ZM10.5799 14.4301L12.3719 12.6451L11.3149 11.5821L9.52192 13.3661L10.5799 14.4301ZM12.2489 5.53211L11.6999 5.18111L10.8909 6.44211L11.4369 6.79411L12.2489 5.53211ZM11.6999 5.18111C11.1609 4.83411 10.7209 4.55111 10.3409 4.34611C9.95192 4.13611 9.58092 3.98511 9.16892 3.92411L8.94892 5.40811C9.12492 5.43411 9.32292 5.50211 9.62992 5.66711C9.94692 5.83711 10.3309 6.08311 10.8909 6.44211L11.6999 5.18111ZM5.32492 7.76511C5.81492 7.27711 6.33892 6.75511 6.80992 6.32711C7.04392 6.11311 7.25692 5.93111 7.43792 5.79111C7.63092 5.64311 7.74592 5.57611 7.79292 5.55711L7.21792 4.17111C6.96928 4.2854 6.73582 4.43018 6.52292 4.60211C6.27354 4.7978 6.03202 5.00329 5.79892 5.21811C5.29892 5.67411 4.75092 6.22011 4.26692 6.70211L5.32492 7.76511ZM9.16992 3.92411C8.50889 3.82876 7.83437 3.91411 7.21792 4.17111L7.79292 5.55711C8.15836 5.40371 8.55846 5.35189 8.95092 5.40711L9.16992 3.92411ZM4.74492 9.02011L5.07592 9.15011L5.62592 7.75511L5.29692 7.62511L4.74492 9.02011ZM6.34392 9.98111L7.17992 10.8131L8.23792 9.75111L7.40192 8.91811L6.34392 9.98111ZM5.07492 9.15111L5.17192 9.18911L5.74292 7.80211L5.62592 7.75511L5.07492 9.15111ZM7.40192 8.91811L7.31292 8.83011L6.26992 9.90711L6.34392 9.98111L7.40192 8.91811ZM5.17192 9.18911C5.58092 9.35711 5.95392 9.60111 6.26992 9.90711L7.31292 8.83011C6.85916 8.39142 6.32644 8.04261 5.74292 7.80211L5.17192 9.18911ZM4.26692 6.70211C4.10038 6.8678 3.97774 7.07237 3.91009 7.29734C3.84245 7.52232 3.83192 7.7606 3.87946 7.99066C3.927 8.22073 4.03111 8.43532 4.18239 8.61505C4.33367 8.79479 4.52635 8.934 4.74492 9.02011L5.29692 7.62511C5.30987 7.63063 5.32226 7.63924 5.33111 7.6502C5.33995 7.66115 5.34597 7.67411 5.34863 7.68793C5.3513 7.70175 5.35053 7.71602 5.3464 7.72947C5.34226 7.74293 5.33489 7.75516 5.32492 7.76511L4.26692 6.70211ZM17.1899 12.5221L17.5419 13.0671L18.8019 12.2511L18.4469 11.7061L17.1899 12.5221ZM16.2149 18.6001L16.1419 18.6731L17.1999 19.7361L17.2729 19.6631L16.2149 18.6001ZM17.5419 13.0671C17.9019 13.6231 18.1509 14.0051 18.3219 14.3201C18.4879 14.6261 18.5549 14.8221 18.5819 14.9961L20.0649 14.7751C20.0029 14.3621 19.8499 13.9921 19.6399 13.6051C19.4349 13.2261 19.1499 12.7881 18.8019 12.2511L17.5419 13.0671ZM17.2729 19.6631C17.7804 19.1651 18.2772 18.6563 18.7629 18.1371C18.9929 17.8881 19.2059 17.6421 19.3829 17.4161C19.5489 17.2011 19.7159 16.9591 19.8149 16.7231L18.4319 16.1441C18.4119 16.1901 18.3469 16.3041 18.1969 16.4961C18.0569 16.6761 17.8739 16.8881 17.6589 17.1221C17.2289 17.5901 16.7049 18.1121 16.2149 18.6001L17.2729 19.6631ZM18.5809 14.9961C18.6368 15.3853 18.5859 15.7824 18.4319 16.1441L19.8149 16.7231C20.0738 16.1086 20.1609 15.435 20.0649 14.7751L18.5809 14.9961ZM14.6839 16.1721L14.2289 15.7731L13.2409 16.9021L13.6959 17.3001L14.6839 16.1721ZM16.3879 18.7321C16.2019 18.2651 16.0879 17.9741 15.9369 17.6991L14.6209 18.4211C14.7179 18.5981 14.7959 18.7891 14.9949 19.2871L16.3879 18.7321ZM13.6609 17.2671C14.0409 17.6471 14.1869 17.7931 14.3109 17.9521L15.4909 17.0261C15.2979 16.7791 15.0749 16.5591 14.7189 16.2041L13.6609 17.2671ZM15.9369 17.6991C15.807 17.4632 15.6571 17.2381 15.4909 17.0261L14.3119 17.9521C14.4286 18.1001 14.5319 18.2568 14.6219 18.4221L15.9369 17.6991ZM17.2889 8.01211C17.1119 8.18767 16.8727 8.28619 16.6234 8.28619C16.3741 8.28619 16.1349 8.18767 15.9579 8.01211L14.8989 9.07511C15.357 9.53066 15.9769 9.78637 16.6229 9.78637C17.269 9.78637 17.8888 9.53066 18.3469 9.07511L17.2889 8.01211ZM15.9579 8.01211C15.8714 7.92573 15.8028 7.82316 15.756 7.71026C15.7092 7.59735 15.6851 7.47633 15.6851 7.35411C15.6851 7.23188 15.7092 7.11086 15.756 6.99795C15.8028 6.88505 15.8714 6.78248 15.9579 6.69611L14.8989 5.63311C14.6725 5.85885 14.4928 6.12708 14.3702 6.4224C14.2476 6.71772 14.1845 7.03434 14.1845 7.35411C14.1845 7.67387 14.2476 7.99049 14.3702 8.28581C14.4928 8.58114 14.6725 8.84936 14.8989 9.07511L15.9579 8.01211ZM15.9579 6.69611C16.1349 6.52054 16.3741 6.42203 16.6234 6.42203C16.8727 6.42203 17.1119 6.52054 17.2889 6.69611L18.3469 5.63311C17.8888 5.17755 17.269 4.92184 16.6229 4.92184C15.9769 4.92184 15.357 5.17755 14.8989 5.63311L15.9579 6.69611ZM17.2889 6.69611C17.3754 6.78248 17.444 6.88505 17.4908 6.99795C17.5376 7.11086 17.5617 7.23188 17.5617 7.35411C17.5617 7.47633 17.5376 7.59735 17.4908 7.71026C17.444 7.82316 17.3754 7.92573 17.2889 8.01211L18.3469 9.07511C18.5734 8.84936 18.7531 8.58114 18.8757 8.28581C18.9983 7.99049 19.0614 7.67387 19.0614 7.35411C19.0614 7.03434 18.9983 6.71772 18.8757 6.4224C18.7531 6.12708 18.5734 5.85885 18.3469 5.63311L17.2889 6.69611ZM16.1419 18.6731C16.1588 18.6562 16.1795 18.6435 16.2023 18.6362C16.2251 18.6289 16.2493 18.6271 16.2729 18.6311C16.3109 18.6391 16.3629 18.6711 16.3879 18.7321L14.9949 19.2871C15.3559 20.1911 16.5249 20.4071 17.1999 19.7361L16.1419 18.6731ZM14.8989 13.9611C14.4539 14.4051 14.1219 14.7351 13.8369 14.9811C13.5519 15.2271 13.3669 15.3391 13.2319 15.3891L13.7489 16.7971C14.1379 16.6541 14.4839 16.4031 14.8169 16.1171C15.1509 15.8271 15.5259 15.4541 15.9569 15.0241L14.8989 13.9611ZM13.2319 15.3891C13.1706 15.4137 13.105 15.426 13.0389 15.4251V16.9251C13.2856 16.9244 13.5223 16.8818 13.7489 16.7971L13.2319 15.3891ZM14.2649 15.8071L14.0199 15.5621L12.9599 16.6241L13.2039 16.8681L14.2649 15.8071ZM8.92492 8.01211C8.50392 8.43211 8.13592 8.79711 7.85092 9.12311C7.56592 9.44711 7.31592 9.78311 7.16692 10.1551L8.55692 10.7151C8.61292 10.5771 8.73192 10.3931 8.97792 10.1121C9.22292 9.83311 9.54892 9.50811 9.98392 9.07511L8.92492 8.01211ZM7.16692 10.1551C7.0665 10.3987 7.01418 10.6597 7.01492 10.9231H8.51492C8.51492 10.8581 8.52492 10.7931 8.55692 10.7151L7.16692 10.1551ZM7.17992 10.8131L7.33192 10.9661L8.39192 9.90511L8.23892 9.75111L7.17992 10.8131ZM5.01892 12.3561L3.32492 14.0461L4.38592 15.1061L6.07692 13.4171L5.01892 12.3561ZM2.84892 13.5711L3.00292 13.4171L1.94292 12.3561L1.78892 12.5091L2.84892 13.5711ZM2.84892 14.0461C2.81763 14.015 2.79279 13.978 2.77585 13.9372C2.7589 13.8965 2.75018 13.8527 2.75018 13.8086C2.75018 13.7645 2.7589 13.7208 2.77585 13.68C2.79279 13.6392 2.81763 13.6022 2.84892 13.5711L1.78892 12.5091C1.61809 12.6796 1.48255 12.882 1.39008 13.1049C1.2976 13.3278 1.25 13.5668 1.25 13.8081C1.25 14.0494 1.2976 14.2884 1.39008 14.5113C1.48255 14.7342 1.61809 14.9367 1.78892 15.1071L2.84892 14.0461ZM3.32492 14.0461C3.26132 14.1087 3.17666 14.1438 3.08742 14.1438C2.99818 14.1438 2.91252 14.1087 2.84892 14.0461L1.78892 15.1061C2.50592 15.8231 3.66892 15.8231 4.38592 15.1061L3.32492 14.0461ZM10.5459 17.9261L8.85392 19.6161L9.91392 20.6761L11.6059 18.9861L10.5459 17.9261ZM11.4519 22.2131L11.6059 22.0591L10.5459 20.9981L10.3919 21.1511L11.4519 22.2131ZM8.85392 22.2131C9.19882 22.5569 9.66594 22.75 10.1529 22.75C10.6399 22.75 11.107 22.5569 11.4519 22.2131L10.3919 21.1511C10.3283 21.214 10.2424 21.2493 10.1529 21.2493C10.0634 21.2493 9.97756 21.214 9.91392 21.1511L8.85392 22.2131ZM8.85392 19.6161C8.68309 19.7866 8.54755 19.988 8.45508 20.2109C8.3626 20.4338 8.315 20.6728 8.315 20.9141C8.315 21.1554 8.3626 21.3944 8.45508 21.6173C8.54755 21.8402 8.68309 22.0427 8.85392 22.2131L9.91392 21.1511C9.88263 21.12 9.85779 21.083 9.84085 21.0422C9.8239 21.0015 9.81518 20.9577 9.81518 20.9136C9.81518 20.8695 9.8239 20.8258 9.84085 20.785C9.85779 20.7442 9.88263 20.7072 9.91392 20.6761L8.85392 19.6161ZM9.57192 16.1251L7.46992 18.2271L8.52992 19.2881L10.6339 17.1861L9.57192 16.1251ZM6.79692 13.3531L4.67992 15.4701L5.74092 16.5301L7.85692 14.4131L6.79692 13.3531ZM6.41192 16.5091L4.70192 18.1801L5.75092 19.2521L7.46092 17.5811L6.41192 16.5091Z" fill="#B5020F"/>
</svg>
