<svg width="18" height="18" viewBox="0 0 18 18" fill="none" xmlns="http://www.w3.org/2000/svg">
<g clip-path="url(#clip0_346_2485)">
<path d="M14.9415 7.22979L15.6367 6.53454C16.1898 5.98146 16.5005 5.23133 16.5005 4.44917C16.5005 3.667 16.1898 2.91687 15.6367 2.36379C15.0837 1.81071 14.3335 1.5 13.5514 1.5C12.7692 1.5 12.0191 1.81071 11.466 2.36379L10.7707 3.05904L4.37925 9.44904C3.9465 9.88254 3.72975 10.0993 3.54375 10.3378C3.32429 10.6194 3.13594 10.9239 2.982 11.246C2.85225 11.519 2.7555 11.81 2.562 12.3905L1.7415 14.8513M14.9415 7.22979C14.9415 7.22979 13.4647 7.14279 12.1612 5.83929C10.8577 4.53654 10.7715 3.05904 10.7715 3.05904M14.9415 7.22979L8.55075 13.6198C8.118 14.0525 7.90125 14.2693 7.66275 14.4553C7.38114 14.6747 7.07662 14.8631 6.7545 15.017C6.4815 15.1468 6.19125 15.2435 5.61 15.437L3.14925 16.2575M3.14925 16.2575L2.54775 16.4585C2.40754 16.5056 2.25699 16.5125 2.11304 16.4787C1.96908 16.4448 1.83742 16.3715 1.73285 16.2669C1.62828 16.1624 1.55495 16.0307 1.5211 15.8868C1.48726 15.7428 1.49423 15.5923 1.54125 15.452L1.74225 14.8505L3.14925 16.2575Z" stroke="#171717" stroke-width="1.125"/>
</g>
<defs>
<clipPath id="clip0_346_2485">
<rect width="18" height="18" fill="white"/>
</clipPath>
</defs>
</svg>
