<svg width="20" height="20" viewBox="0 0 20 20" fill="none" xmlns="http://www.w3.org/2000/svg">
<path d="M18.3346 8.75033V10.0003C18.3346 13.9287 18.3346 15.8928 17.1138 17.1128C15.8946 18.3337 13.9296 18.3337 10.0013 18.3337C6.07297 18.3337 4.1088 18.3337 2.88797 17.1128C1.66797 15.8937 1.66797 13.9287 1.66797 10.0003C1.66797 6.07199 1.66797 4.10783 2.88797 2.88699C4.10964 1.66699 6.07297 1.66699 10.0013 1.66699H11.2513" stroke="#171717" stroke-width="1.25" stroke-linecap="round"/>
<path d="M13.8785 2.87959L14.4194 2.33876C14.8497 1.90856 15.4333 1.66691 16.0417 1.66699C16.6502 1.66707 17.2337 1.90886 17.6639 2.33918C18.0941 2.76949 18.3358 3.35308 18.3357 3.96155C18.3356 4.57003 18.0938 5.15356 17.6635 5.58376L17.1219 6.12459C17.1219 6.12459 15.9735 6.05709 14.9602 5.04293C13.946 4.02959 13.8785 2.88043 13.8785 2.88043L8.9077 7.85043C8.57103 8.18709 8.4027 8.35543 8.2577 8.54126C8.08658 8.7607 7.94103 8.99626 7.82103 9.24793C7.7202 9.46043 7.6452 9.68626 7.49436 10.1379L7.01186 11.5838M7.01186 11.5838L6.7002 12.5188C6.66354 12.6278 6.65803 12.7449 6.68429 12.8569C6.71055 12.9689 6.76754 13.0714 6.84884 13.1528C6.93015 13.2342 7.03254 13.2913 7.14452 13.3176C7.2565 13.344 7.37361 13.3386 7.4827 13.3021L8.41853 12.9904M7.01186 11.5838L8.41853 12.9904M17.1227 6.12376L12.1519 11.0946C11.8152 11.4313 11.6469 11.5996 11.461 11.7446C11.242 11.9153 11.005 12.0617 10.7544 12.1813C10.5419 12.2821 10.316 12.3571 9.86436 12.5079L8.41853 12.9904" stroke="#171717" stroke-width="1.25"/>
</svg>
