<svg width="18" height="18" viewBox="0 0 18 18" fill="none" xmlns="http://www.w3.org/2000/svg">
<g clip-path="url(#clip0_346_2492)">
<path d="M11.6243 6.74994L11.7533 6.87894C12.7531 7.87869 13.2533 8.37894 13.2533 8.99994C13.2533 9.62094 12.7531 10.1212 11.7533 11.1209L11.6243 11.2499M9.96984 5.37744L8.99934 8.99994L8.02884 12.6224M6.37434 6.74994L6.24609 6.87894C5.24559 7.87869 4.74609 8.37894 4.74609 8.99994C4.74609 9.62094 5.24559 10.1212 6.24609 11.1209L6.37434 11.2499" stroke="white" stroke-width="1.125" stroke-linecap="round"/>
<path d="M1.5 9C1.5 5.4645 1.5 3.69675 2.598 2.598C3.6975 1.5 5.4645 1.5 9 1.5C12.5355 1.5 14.3032 1.5 15.4012 2.598C16.5 3.6975 16.5 5.4645 16.5 9C16.5 12.5355 16.5 14.3032 15.4012 15.4012C14.304 16.5 12.5355 16.5 9 16.5C5.4645 16.5 3.69675 16.5 2.598 15.4012C1.5 14.304 1.5 12.5355 1.5 9Z" stroke="white" stroke-width="1.125"/>
</g>
<defs>
<clipPath id="clip0_346_2492">
<rect width="18" height="18" fill="white"/>
</clipPath>
</defs>
</svg>
