<svg width="8" height="5" viewBox="0 0 8 5" fill="none" xmlns="http://www.w3.org/2000/svg">
<path fill-rule="evenodd" clip-rule="evenodd" d="M4.30283 4.30283C4.19344 4.41219 4.0451 4.47363 3.89042 4.47363C3.73574 4.47363 3.58739 4.41219 3.478 4.30283L0.178085 1.00292C0.122371 0.949108 0.0779309 0.88474 0.047359 0.813571C0.0167871 0.742402 0.000695084 0.665857 2.20246e-05 0.588402C-0.000651035 0.510948 0.0141084 0.434135 0.043439 0.362445C0.0727695 0.290756 0.116084 0.225625 0.170855 0.170854C0.225625 0.116084 0.290755 0.0727692 0.362445 0.0434387C0.434134 0.0141082 0.510948 -0.000651035 0.588402 2.20249e-05C0.665857 0.000695084 0.742402 0.0167871 0.813571 0.047359C0.88474 0.0779309 0.949108 0.12237 1.00292 0.178085L3.89042 3.06558L6.77792 0.178085C6.88794 0.0718258 7.03529 0.0130291 7.18824 0.0143581C7.34118 0.0156872 7.48749 0.0770356 7.59565 0.18519C7.7038 0.293345 7.76515 0.439653 7.76648 0.592601C7.76781 0.745549 7.70901 0.8929 7.60275 1.00292L4.30283 4.30283Z" fill="#B5020F"/>
</svg>
