<svg width="18" height="18" viewBox="0 0 18 18" fill="none" xmlns="http://www.w3.org/2000/svg">
<g clip-path="url(#clip0_346_2508)">
<path d="M1.5 9C1.5 5.4645 1.5 3.69675 2.598 2.598C3.6975 1.5 5.4645 1.5 9 1.5C12.5355 1.5 14.3032 1.5 15.4012 2.598C16.5 3.6975 16.5 5.4645 16.5 9C16.5 12.5355 16.5 14.3032 15.4012 15.4012C14.304 16.5 12.5355 16.5 9 16.5C5.4645 16.5 3.69675 16.5 2.598 15.4012C1.5 14.304 1.5 12.5355 1.5 9Z" stroke="#171717" stroke-width="1.125"/>
<path d="M5.25 10.5L6.96975 8.78025C7.1104 8.63965 7.30113 8.56066 7.5 8.56066C7.69887 8.56066 7.8896 8.63965 8.03025 8.78025L9.21975 9.96975C9.3604 10.1104 9.55113 10.1893 9.75 10.1893C9.94887 10.1893 10.1396 10.1104 10.2802 9.96975L12.75 7.5M12.75 7.5V9.375M12.75 7.5H10.875" stroke="#171717" stroke-width="1.125" stroke-linecap="round" stroke-linejoin="round"/>
</g>
<defs>
<clipPath id="clip0_346_2508">
<rect width="18" height="18" fill="white"/>
</clipPath>
</defs>
</svg>
