<svg width="24" height="24" viewBox="0 0 24 24" fill="none" xmlns="http://www.w3.org/2000/svg">
<path d="M11.825 6.45494L11.816 6.44894L11.023 5.91594C10.4787 5.54983 9.82933 5.37223 9.17444 5.41034C8.51955 5.44845 7.8952 5.70017 7.397 6.12694L5.45 7.79594C5.31401 7.91223 5.14093 7.97608 4.962 7.97594H2.75C2.55109 7.97594 2.36032 8.05496 2.21967 8.19561C2.07902 8.33627 2 8.52703 2 8.72594V14.7559C2 15.1699 2.336 15.5059 2.75 15.5059H4.838C4.9445 15.5059 5.04979 15.5285 5.14686 15.5723C5.24394 15.6161 5.33057 15.6801 5.401 15.7599L7.74 18.4199C8.10412 18.8338 8.60749 19.0996 9.15459 19.1668C9.70169 19.2341 10.2545 19.0982 10.708 18.7849L11.392 18.3119L12.126 18.5619C12.5796 18.7158 13.0704 18.7208 13.5271 18.5764C13.9837 18.432 14.3824 18.1456 14.665 17.7589L15.135 17.1169L15.461 17.1609C15.9125 17.2218 16.3718 17.1441 16.7782 16.9382C17.1846 16.7324 17.519 16.408 17.737 16.0079L17.786 15.9179H21.25C21.4489 15.9179 21.6397 15.8389 21.7803 15.6983C21.921 15.5576 22 15.3669 22 15.1679V8.72694C22 8.52803 21.921 8.33726 21.7803 8.19661C21.6397 8.05596 21.4489 7.97694 21.25 7.97694H19.039C18.8591 7.977 18.6852 7.91241 18.549 7.79494L16.86 6.33594C16.1555 5.72717 15.2497 5.40227 14.3189 5.42445C13.388 5.44663 12.4987 5.81431 11.824 6.45594M10.184 7.16094L10.746 7.53894L8.786 9.50994C8.57477 9.72238 8.40808 9.97486 8.29573 10.2526C8.18337 10.5303 8.12761 10.8276 8.13171 11.1272C8.1358 11.4267 8.19968 11.7225 8.31959 11.997C8.4395 12.2715 8.61303 12.5194 8.83 12.7259L8.898 12.7899C9.708 13.5609 10.96 13.6209 11.839 12.9299L13.918 11.2979L16.575 13.8529C16.6937 13.9669 16.7716 14.1168 16.7967 14.2794C16.8219 14.4421 16.7928 14.6085 16.714 14.7529L16.689 14.7969L16.675 14.8229L16.42 15.2899C16.3473 15.4231 16.236 15.5311 16.1006 15.5996C15.9653 15.6682 15.8124 15.6941 15.662 15.6739L14.893 15.5709C14.7594 15.553 14.6234 15.5713 14.4993 15.6241C14.3752 15.6769 14.2677 15.7622 14.188 15.8709L13.454 16.8729C13.3598 17.0018 13.227 17.0973 13.0749 17.1455C12.9227 17.1937 12.7592 17.1921 12.608 17.1409L11.518 16.7709C11.4071 16.7332 11.289 16.722 11.173 16.7381C11.057 16.7543 10.9464 16.7974 10.85 16.8639L9.856 17.5509C9.70473 17.6555 9.5203 17.7009 9.33778 17.6784C9.15526 17.6559 8.98736 17.5671 8.866 17.4289L6.527 14.7689C6.31569 14.529 6.05567 14.3368 5.76425 14.2053C5.47284 14.0737 5.15674 14.0057 4.837 14.0059H3.5V9.47594H4.961C5.49792 9.47606 6.01718 9.28418 6.425 8.93494L8.373 7.26594C8.62204 7.05248 8.93419 6.92653 9.26163 6.90739C9.58908 6.88824 9.91378 6.97696 10.186 7.15994M18.306 14.4189C18.3096 14.1117 18.2503 13.807 18.1316 13.5235C18.0129 13.2401 17.8374 12.984 17.616 12.7709L15.095 10.3469C15.2081 10.2027 15.2645 10.022 15.2535 9.839C15.2425 9.656 15.1648 9.48337 15.0352 9.35373C14.9056 9.2241 14.7329 9.14644 14.5499 9.13542C14.3669 9.1244 14.1862 9.1808 14.042 9.29394L13.536 9.69094L13.476 9.73794L10.914 11.7509C10.7722 11.8624 10.5949 11.919 10.4147 11.9103C10.2346 11.9017 10.0635 11.8284 9.933 11.7039L9.865 11.6389C9.79266 11.5701 9.73479 11.4875 9.69479 11.396C9.65479 11.3045 9.63346 11.2059 9.63207 11.1061C9.63067 11.0062 9.64923 10.9071 9.68665 10.8145C9.72407 10.722 9.77961 10.6378 9.85 10.5669L12.815 7.58694C13.2165 7.18326 13.7562 6.94682 14.3252 6.92529C14.8941 6.90377 15.4501 7.09875 15.881 7.47094L17.568 8.92894C17.9771 9.28214 18.4996 9.47631 19.04 9.47594H20.5V14.4189H18.306Z" fill="url(#paint0_linear_304_721)"/>
<defs>
<linearGradient id="paint0_linear_304_721" x1="12" y1="5.40527" x2="12" y2="19.1837" gradientUnits="userSpaceOnUse">
<stop stop-color="#B5020F"/>
<stop offset="1" stop-color="#282828"/>
</linearGradient>
</defs>
</svg>
