<svg width="24" height="24" viewBox="0 0 24 24" fill="none" xmlns="http://www.w3.org/2000/svg">
<path d="M16 2V6M8 2V6M21 13V12C21 8.229 21 6.343 19.828 5.172C18.656 4.001 16.771 4 13 4H11C7.229 4 5.343 4 4.172 5.172C3.001 6.344 3 8.229 3 12V14C3 17.771 3 19.657 4.172 20.828C5.344 21.999 7.229 22 11 22M3 10H21" stroke="white" stroke-width="1.5" stroke-linecap="round" stroke-linejoin="round"/>
<path d="M13 19.5C13 19.5 14.348 20.007 15 22C15 22 18.177 17 21 16" stroke="white" stroke-width="1.5" stroke-linecap="round" stroke-linejoin="round"/>
</svg>
