<svg width="28" height="27" viewBox="0 0 28 27" fill="none" xmlns="http://www.w3.org/2000/svg">
<path fill-rule="evenodd" clip-rule="evenodd" d="M18.6667 3.375C20.2138 3.375 21.6975 3.96763 22.7915 5.02252C23.8854 6.07742 24.5 7.50816 24.5 9V18C24.5 19.4918 23.8854 20.9226 22.7915 21.9775C21.6975 23.0324 20.2138 23.625 18.6667 23.625H9.33333C7.78624 23.625 6.30251 23.0324 5.20854 21.9775C4.11458 20.9226 3.5 19.4918 3.5 18V9C3.5 7.50816 4.11458 6.07742 5.20854 5.02252C6.30251 3.96763 7.78624 3.375 9.33333 3.375H18.6667ZM18.6667 5.625H9.33333C8.40508 5.625 7.51484 5.98058 6.85846 6.61351C6.20208 7.24645 5.83333 8.10489 5.83333 9V18C5.83333 18.8951 6.20208 19.7536 6.85846 20.3865C7.51484 21.0194 8.40508 21.375 9.33333 21.375H18.6667C19.5949 21.375 20.4852 21.0194 21.1415 20.3865C21.7979 19.7536 22.1667 18.8951 22.1667 18V9C22.1667 8.10489 21.7979 7.24645 21.1415 6.61351C20.4852 5.98058 19.5949 5.625 18.6667 5.625ZM14 9C15.2377 9 16.4247 9.47411 17.2998 10.318C18.175 11.1619 18.6667 12.3065 18.6667 13.5C18.6667 14.6935 18.175 15.8381 17.2998 16.682C16.4247 17.5259 15.2377 18 14 18C12.7623 18 11.5753 17.5259 10.7002 16.682C9.825 15.8381 9.33333 14.6935 9.33333 13.5C9.33333 12.3065 9.825 11.1619 10.7002 10.318C11.5753 9.47411 12.7623 9 14 9ZM14 11.25C13.3812 11.25 12.7877 11.4871 12.3501 11.909C11.9125 12.331 11.6667 12.9033 11.6667 13.5C11.6667 14.0967 11.9125 14.669 12.3501 15.091C12.7877 15.5129 13.3812 15.75 14 15.75C14.6188 15.75 15.2123 15.5129 15.6499 15.091C16.0875 14.669 16.3333 14.0967 16.3333 13.5C16.3333 12.9033 16.0875 12.331 15.6499 11.909C15.2123 11.4871 14.6188 11.25 14 11.25ZM19.25 7.3125C19.5594 7.3125 19.8562 7.43103 20.075 7.642C20.2938 7.85298 20.4167 8.13913 20.4167 8.4375C20.4167 8.73587 20.2938 9.02202 20.075 9.233C19.8562 9.44397 19.5594 9.5625 19.25 9.5625C18.9406 9.5625 18.6438 9.44397 18.425 9.233C18.2062 9.02202 18.0833 8.73587 18.0833 8.4375C18.0833 8.13913 18.2062 7.85298 18.425 7.642C18.6438 7.43103 18.9406 7.3125 19.25 7.3125Z" fill="url(#paint0_linear_265_702)"/>
<defs>
<linearGradient id="paint0_linear_265_702" x1="3.5" y1="13.5" x2="24.5" y2="13.5" gradientUnits="userSpaceOnUse">
<stop stop-color="white"/>
</linearGradient>
</defs>
</svg>
