<svg width="25" height="24" viewBox="0 0 25 24" fill="none" xmlns="http://www.w3.org/2000/svg">
<path fill-rule="evenodd" clip-rule="evenodd" d="M16.6667 3C18.048 3 19.3728 3.52678 20.3495 4.46447C21.3263 5.40215 21.875 6.67392 21.875 8V16C21.875 17.3261 21.3263 18.5979 20.3495 19.5355C19.3728 20.4732 18.048 21 16.6667 21H8.33333C6.952 21 5.62724 20.4732 4.65049 19.5355C3.67373 18.5979 3.125 17.3261 3.125 16V8C3.125 6.67392 3.67373 5.40215 4.65049 4.46447C5.62724 3.52678 6.952 3 8.33333 3H16.6667ZM16.6667 5H8.33333C7.50453 5 6.70968 5.31607 6.12362 5.87868C5.53757 6.44129 5.20833 7.20435 5.20833 8V16C5.20833 16.7956 5.53757 17.5587 6.12362 18.1213C6.70968 18.6839 7.50453 19 8.33333 19H16.6667C17.4955 19 18.2903 18.6839 18.8764 18.1213C19.4624 17.5587 19.7917 16.7956 19.7917 16V8C19.7917 7.20435 19.4624 6.44129 18.8764 5.87868C18.2903 5.31607 17.4955 5 16.6667 5ZM12.5 8C13.6051 8 14.6649 8.42143 15.4463 9.17157C16.2277 9.92172 16.6667 10.9391 16.6667 12C16.6667 13.0609 16.2277 14.0783 15.4463 14.8284C14.6649 15.5786 13.6051 16 12.5 16C11.3949 16 10.3351 15.5786 9.55372 14.8284C8.77232 14.0783 8.33333 13.0609 8.33333 12C8.33333 10.9391 8.77232 9.92172 9.55372 9.17157C10.3351 8.42143 11.3949 8 12.5 8ZM12.5 10C11.9475 10 11.4176 10.2107 11.0269 10.5858C10.6362 10.9609 10.4167 11.4696 10.4167 12C10.4167 12.5304 10.6362 13.0391 11.0269 13.4142C11.4176 13.7893 11.9475 14 12.5 14C13.0525 14 13.5824 13.7893 13.9731 13.4142C14.3638 13.0391 14.5833 12.5304 14.5833 12C14.5833 11.4696 14.3638 10.9609 13.9731 10.5858C13.5824 10.2107 13.0525 10 12.5 10ZM17.1875 6.5C17.4638 6.5 17.7287 6.60536 17.9241 6.79289C18.1194 6.98043 18.2292 7.23478 18.2292 7.5C18.2292 7.76522 18.1194 8.01957 17.9241 8.20711C17.7287 8.39464 17.4638 8.5 17.1875 8.5C16.9112 8.5 16.6463 8.39464 16.4509 8.20711C16.2556 8.01957 16.1458 7.76522 16.1458 7.5C16.1458 7.23478 16.2556 6.98043 16.4509 6.79289C16.6463 6.60536 16.9112 6.5 17.1875 6.5Z" fill="#B5020F"/>
</svg>
