<svg width="24" height="24" viewBox="0 0 24 24" fill="none" xmlns="http://www.w3.org/2000/svg">
<path d="M11.825 6.04967L11.816 6.04367L11.023 5.51067C10.4787 5.14456 9.82933 4.96696 9.17444 5.00507C8.51955 5.04318 7.8952 5.29489 7.397 5.72167L5.45 7.39067C5.31401 7.50696 5.14093 7.5708 4.962 7.57067H2.75C2.55109 7.57067 2.36032 7.64969 2.21967 7.79034C2.07902 7.93099 2 8.12176 2 8.32067V14.3507C2 14.7647 2.336 15.1007 2.75 15.1007H4.838C4.9445 15.1006 5.04979 15.1232 5.14686 15.167C5.24394 15.2108 5.33057 15.2748 5.401 15.3547L7.74 18.0147C8.10412 18.4285 8.60749 18.6943 9.15459 18.7616C9.70169 18.8288 10.2545 18.693 10.708 18.3797L11.392 17.9067L12.126 18.1567C12.5796 18.3105 13.0704 18.3155 13.5271 18.1711C13.9837 18.0267 14.3824 17.7403 14.665 17.3537L15.135 16.7117L15.461 16.7557C15.9125 16.8165 16.3718 16.7388 16.7782 16.533C17.1846 16.3271 17.519 16.0027 17.737 15.6027L17.786 15.5127H21.25C21.4489 15.5127 21.6397 15.4337 21.7803 15.293C21.921 15.1523 22 14.9616 22 14.7627V8.32167C22 8.12276 21.921 7.93199 21.7803 7.79134C21.6397 7.65069 21.4489 7.57167 21.25 7.57167H19.039C18.8591 7.57172 18.6852 7.50713 18.549 7.38967L16.86 5.93067C16.1555 5.3219 15.2497 4.997 14.3189 5.01918C13.388 5.04136 12.4987 5.40903 11.824 6.05067M10.184 6.75567L10.746 7.13367L8.786 9.10467C8.57477 9.31711 8.40808 9.56959 8.29573 9.8473C8.18337 10.125 8.12761 10.4224 8.13171 10.7219C8.1358 11.0215 8.19968 11.3172 8.31959 11.5917C8.4395 11.8663 8.61303 12.1141 8.83 12.3207L8.898 12.3847C9.708 13.1557 10.96 13.2157 11.839 12.5247L13.918 10.8927L16.575 13.4477C16.6937 13.5617 16.7716 13.7115 16.7967 13.8742C16.8219 14.0368 16.7928 14.2032 16.714 14.3477L16.689 14.3917L16.675 14.4177L16.42 14.8847C16.3473 15.0178 16.236 15.1258 16.1006 15.1944C15.9653 15.2629 15.8124 15.2888 15.662 15.2687L14.893 15.1657C14.7594 15.1477 14.6234 15.1661 14.4993 15.2189C14.3752 15.2716 14.2677 15.3569 14.188 15.4657L13.454 16.4677C13.3598 16.5965 13.227 16.692 13.0749 16.7402C12.9227 16.7884 12.7592 16.7868 12.608 16.7357L11.518 16.3657C11.4071 16.3279 11.289 16.3167 11.173 16.3328C11.057 16.349 10.9464 16.3921 10.85 16.4587L9.856 17.1457C9.70473 17.2502 9.5203 17.2956 9.33778 17.2731C9.15526 17.2506 8.98736 17.1618 8.866 17.0237L6.527 14.3637C6.31569 14.1237 6.05567 13.9315 5.76425 13.8C5.47284 13.6684 5.15674 13.6005 4.837 13.6007H3.5V9.07067H4.961C5.49792 9.07079 6.01718 8.8789 6.425 8.52967L8.373 6.86067C8.62204 6.64721 8.93419 6.52126 9.26163 6.50211C9.58908 6.48297 9.91378 6.57168 10.186 6.75467M18.306 14.0137C18.3096 13.7064 18.2503 13.4017 18.1316 13.1182C18.0129 12.8348 17.8374 12.5787 17.616 12.3657L15.095 9.94167C15.2081 9.79742 15.2645 9.61672 15.2535 9.43372C15.2425 9.25072 15.1648 9.0781 15.0352 8.94846C14.9056 8.81883 14.7329 8.74116 14.5499 8.73015C14.3669 8.71913 14.1862 8.77552 14.042 8.88867L13.536 9.28567L13.476 9.33267L10.914 11.3457C10.7722 11.4571 10.5949 11.5137 10.4147 11.5051C10.2346 11.4964 10.0635 11.4232 9.933 11.2987L9.865 11.2337C9.79266 11.1648 9.73479 11.0822 9.69479 10.9907C9.65479 10.8992 9.63346 10.8007 9.63207 10.7008C9.63067 10.601 9.64923 10.5018 9.68665 10.4093C9.72407 10.3167 9.77961 10.2325 9.85 10.1617L12.815 7.18167C13.2165 6.77799 13.7562 6.54155 14.3252 6.52002C14.8941 6.49849 15.4501 6.69348 15.881 7.06567L17.568 8.52367C17.9771 8.87687 18.4996 9.07104 19.04 9.07067H20.5V14.0137H18.306Z" fill="url(#paint0_linear_138_58)"/>
<defs>
<linearGradient id="paint0_linear_138_58" x1="12" y1="5" x2="12" y2="18.7784" gradientUnits="userSpaceOnUse">
<stop stop-color="#B5020F"/>
<stop offset="1" stop-color="#4F0107"/>
</linearGradient>
</defs>
</svg>
