<svg width="18" height="18" viewBox="0 0 18 18" fill="none" xmlns="http://www.w3.org/2000/svg">
<path d="M7.1258 14.6257C7.1258 14.0902 7.1258 13.8232 7.09655 13.6455C7.00505 13.0732 6.9893 13.0365 6.62405 12.5865C6.51005 12.4462 6.09005 12.0705 5.25005 11.3175C4.40096 10.5581 3.80246 9.55872 3.53374 8.4517C3.26502 7.34469 3.33875 6.18218 3.74517 5.11798C4.15159 4.05379 4.87154 3.13807 5.80977 2.49199C6.748 1.84592 7.86028 1.49993 8.99944 1.49982C10.1386 1.4997 11.2509 1.84547 12.1893 2.49136C13.1277 3.13724 13.8478 4.05282 14.2544 5.11693C14.6611 6.18105 14.735 7.34354 14.4665 8.45061C14.198 9.55768 13.5997 10.5571 12.7508 11.3167C11.91 12.0697 11.49 12.4462 11.3768 12.5857C11.0115 13.0357 10.9958 13.0725 10.9035 13.6447C10.875 13.8225 10.875 14.0902 10.875 14.625H7.12505C7.12505 15.3262 7.12505 15.6765 7.2758 15.9375C7.37453 16.1085 7.51654 16.2505 7.68755 16.3492C7.94855 16.5 8.2988 16.5 9.00005 16.5C9.7013 16.5 10.0515 16.5 10.3133 16.35C10.4843 16.2512 10.6263 16.1092 10.725 15.9382C10.8758 15.6772 10.8758 15.327 10.8758 14.6257" stroke="#171717" stroke-width="1.125"/>
<path d="M8.99822 12.7498V11.2498M8.99822 11.2498C9.26151 11.2498 9.52017 11.1804 9.74819 11.0488C9.97621 10.9172 10.1656 10.7278 10.2972 10.4998M8.99822 11.2498C8.73493 11.2498 8.47627 11.1804 8.24825 11.0488C8.02023 10.9172 7.83088 10.7278 7.69922 10.4998" stroke="#171717" stroke-width="1.125" stroke-linecap="round"/>
</svg>
