<svg width="30" height="29" viewBox="0 0 30 29" fill="none" xmlns="http://www.w3.org/2000/svg">
<path d="M23.75 3.625C24.413 3.625 25.0489 3.87961 25.5178 4.33283C25.9866 4.78604 26.25 5.40073 26.25 6.04167V22.9583C26.25 23.5993 25.9866 24.214 25.5178 24.6672C25.0489 25.1204 24.413 25.375 23.75 25.375H6.25C5.58696 25.375 4.95107 25.1204 4.48223 24.6672C4.01339 24.214 3.75 23.5993 3.75 22.9583V6.04167C3.75 5.40073 4.01339 4.78604 4.48223 4.33283C4.95107 3.87961 5.58696 3.625 6.25 3.625H23.75ZM23.125 22.3542V15.95C23.125 14.9053 22.6957 13.9033 21.9315 13.1646C21.1672 12.4259 20.1308 12.0108 19.05 12.0108C17.9875 12.0108 16.75 12.6392 16.15 13.5817V12.2404H12.6625V22.3542H16.15V16.3971C16.15 15.4667 16.925 14.7054 17.8875 14.7054C18.3516 14.7054 18.7967 14.8836 19.1249 15.2009C19.4531 15.5181 19.6375 15.9484 19.6375 16.3971V22.3542H23.125ZM8.6 10.3433C9.15695 10.3433 9.6911 10.1295 10.0849 9.74876C10.4788 9.36806 10.7 8.85172 10.7 8.31333C10.7 7.18958 9.7625 6.27125 8.6 6.27125C8.03973 6.27125 7.50241 6.4864 7.10624 6.86936C6.71007 7.25233 6.4875 7.77174 6.4875 8.31333C6.4875 9.43708 7.4375 10.3433 8.6 10.3433ZM10.3375 22.3542V12.2404H6.875V22.3542H10.3375Z" fill="url(#paint0_linear_265_698)"/>
<defs>
<linearGradient id="paint0_linear_265_698" x1="3.75" y1="14.5" x2="26.25" y2="14.5" gradientUnits="userSpaceOnUse">
<stop stop-color="white"/>
</linearGradient>
</defs>
</svg>
