<svg width="26" height="25" viewBox="0 0 26 25" fill="none" xmlns="http://www.w3.org/2000/svg">
<path d="M20.5833 3.125C21.158 3.125 21.7091 3.34449 22.1154 3.73519C22.5217 4.12589 22.75 4.6558 22.75 5.20833V19.7917C22.75 20.3442 22.5217 20.8741 22.1154 21.2648C21.7091 21.6555 21.158 21.875 20.5833 21.875H5.41667C4.84203 21.875 4.29093 21.6555 3.8846 21.2648C3.47827 20.8741 3.25 20.3442 3.25 19.7917V5.20833C3.25 4.6558 3.47827 4.12589 3.8846 3.73519C4.29093 3.34449 4.84203 3.125 5.41667 3.125H20.5833ZM20.0417 19.2708V13.75C20.0417 12.8494 19.6696 11.9856 19.0073 11.3488C18.3449 10.7119 17.4467 10.3542 16.51 10.3542C15.5892 10.3542 14.5167 10.8958 13.9967 11.7083V10.5521H10.9742V19.2708H13.9967V14.1354C13.9967 13.3333 14.6683 12.6771 15.5025 12.6771C15.9047 12.6771 16.2905 12.8307 16.5749 13.1042C16.8594 13.3777 17.0192 13.7486 17.0192 14.1354V19.2708H20.0417ZM7.45333 8.91667C7.93603 8.91667 8.39895 8.73229 8.74027 8.4041C9.08158 8.07591 9.27333 7.6308 9.27333 7.16667C9.27333 6.19792 8.46083 5.40625 7.45333 5.40625C6.96777 5.40625 6.50209 5.59172 6.15874 5.92186C5.81539 6.25201 5.6225 6.69978 5.6225 7.16667C5.6225 8.13542 6.44583 8.91667 7.45333 8.91667ZM8.95917 19.2708V10.5521H5.95833V19.2708H8.95917Z" fill="#B5020F"/>
</svg>
