<svg width="28" height="24" viewBox="0 0 28 24" fill="none" xmlns="http://www.w3.org/2000/svg">
<path fill-rule="evenodd" clip-rule="evenodd" d="M13.875 2C18.3497 2 21.9688 5.13 21.9688 9C21.9688 14.25 13.875 22 13.875 22C13.875 22 5.78125 14.25 5.78125 9C5.78125 5.13 9.40031 2 13.875 2ZM8.09375 9C8.09375 11.85 11.47 16.21 13.875 18.88C16.3263 16.19 19.6562 11.88 19.6562 9C19.6562 6.24 17.0662 4 13.875 4C10.6838 4 8.09375 6.24 8.09375 9ZM13.875 11.5C12.2786 11.5 10.9844 10.3807 10.9844 9C10.9844 7.61929 12.2786 6.5 13.875 6.5C15.4714 6.5 16.7656 7.61929 16.7656 9C16.7656 10.3807 15.4714 11.5 13.875 11.5Z" fill="white"/>
</svg>
