<svg width="24" height="24" viewBox="0 0 24 24" fill="none" xmlns="http://www.w3.org/2000/svg">
<g clip-path="url(#clip0_14_1102)">
<path d="M24 15.4336V18H22.5V16.0664L21.2227 14.7773L21.2578 14.7422C20.9453 14.9141 20.5977 15 20.2148 15C19.8711 15 19.5547 14.9297 19.2656 14.7891L18 16.0664V18H16.5V15.4336L18.1992 13.7461L18.1641 13.6641L15.2227 7.07812L10.4414 12.0117C10.457 12.1367 10.4688 12.2578 10.4766 12.375C10.4844 12.4922 10.4922 12.6172 10.5 12.75V22.5H12V24H0V22.5H1.5V12.75C1.5 12.1562 1.60938 11.5977 1.82812 11.0742C2.04688 10.5508 2.34375 10.0859 2.71875 9.67969C3.09375 9.27344 3.53906 8.94531 4.05469 8.69531C4.57031 8.44531 5.125 8.30078 5.71875 8.26172L12.8438 0.914062C13.125 0.617188 13.4531 0.390625 13.8281 0.234375C14.2031 0.078125 14.5938 0 15 0C15.2734 0 15.5469 0.0390625 15.8203 0.117188C16.0938 0.195312 16.3555 0.3125 16.6055 0.46875C16.8555 0.625 17.0781 0.804688 17.2734 1.00781C17.4688 1.21094 17.625 1.44531 17.7422 1.71094L22.2422 11.7656C22.3125 11.9219 22.3633 12.082 22.3945 12.2461C22.4258 12.4102 22.4414 12.5742 22.4414 12.7383C22.4414 12.9258 22.4219 13.1094 22.3828 13.2891C22.3438 13.4688 22.2773 13.6445 22.1836 13.8164L22.2773 13.7227L24 15.4336ZM9 22.5V12.75C9 12.3359 8.92188 11.9492 8.76562 11.5898C8.60938 11.2305 8.39453 10.9102 8.12109 10.6289C7.84766 10.3477 7.53125 10.1328 7.17188 9.98438C6.8125 9.83594 6.42188 9.75781 6 9.75C5.58594 9.75 5.19922 9.82812 4.83984 9.98438C4.48047 10.1406 4.16016 10.3555 3.87891 10.6289C3.59766 10.9023 3.38281 11.2188 3.23438 11.5781C3.08594 11.9375 3.00781 12.3281 3 12.75V22.5H9ZM7.54688 8.51953C8.03125 8.69922 8.47266 8.95312 8.87109 9.28125C9.26953 9.60938 9.60156 9.99609 9.86719 10.4414L16.0781 4.04297C16.3594 3.74609 16.5 3.39844 16.5 3C16.5 2.78906 16.4609 2.59375 16.3828 2.41406C16.3047 2.23438 16.1992 2.07812 16.0664 1.94531C15.9336 1.8125 15.7734 1.70312 15.5859 1.61719C15.3984 1.53125 15.2031 1.49219 15 1.5C14.5703 1.5 14.2109 1.65234 13.9219 1.95703L7.54688 8.51953ZM17.4492 4.72266C17.3086 4.94922 17.1367 5.15625 16.9336 5.34375C16.7305 5.53125 16.5352 5.72266 16.3477 5.91797L18.6562 11.0859L20.0273 10.5L17.4492 4.72266ZM20.2148 13.5C20.4414 13.5 20.6211 13.4258 20.7539 13.2773C20.8867 13.1289 20.9531 12.9492 20.9531 12.7383C20.9531 12.582 20.918 12.4336 20.8477 12.293C20.7773 12.1523 20.707 12.0117 20.6367 11.8711L19.2656 12.457C19.3125 12.5742 19.3594 12.6953 19.4062 12.8203C19.4531 12.9453 19.5117 13.0586 19.582 13.1602C19.6523 13.2617 19.7344 13.3438 19.8281 13.4062C19.9219 13.4688 20.0508 13.5 20.2148 13.5ZM6 12C6.21094 12 6.40625 12.0391 6.58594 12.1172C6.76562 12.1953 6.92188 12.3008 7.05469 12.4336C7.1875 12.5664 7.29688 12.7266 7.38281 12.9141C7.46875 13.1016 7.50781 13.2969 7.5 13.5C7.5 13.7109 7.46094 13.9062 7.38281 14.0859C7.30469 14.2656 7.19922 14.4219 7.06641 14.5547C6.93359 14.6875 6.77344 14.7969 6.58594 14.8828C6.39844 14.9688 6.20312 15.0078 6 15C5.78906 15 5.59375 14.9609 5.41406 14.8828C5.23438 14.8047 5.07812 14.6992 4.94531 14.5664C4.8125 14.4336 4.70312 14.2734 4.61719 14.0859C4.53125 13.8984 4.49219 13.7031 4.5 13.5C4.5 13.2891 4.53906 13.0938 4.61719 12.9141C4.69531 12.7344 4.80078 12.5781 4.93359 12.4453C5.06641 12.3125 5.22656 12.2031 5.41406 12.1172C5.60156 12.0312 5.79688 11.9922 6 12Z" fill="black"/>
</g>
<defs>
<clipPath id="clip0_14_1102">
<rect width="24" height="24" fill="white"/>
</clipPath>
</defs>
</svg>
