<svg width="20" height="20" viewBox="0 0 20 20" fill="none" xmlns="http://www.w3.org/2000/svg">
<path fill-rule="evenodd" clip-rule="evenodd" d="M13.3333 2.5C14.4384 2.5 15.4982 2.93899 16.2796 3.72039C17.061 4.50179 17.5 5.5616 17.5 6.66667V13.3333C17.5 14.4384 17.061 15.4982 16.2796 16.2796C15.4982 17.061 14.4384 17.5 13.3333 17.5H6.66667C5.5616 17.5 4.50179 17.061 3.72039 16.2796C2.93899 15.4982 2.5 14.4384 2.5 13.3333V6.66667C2.5 5.5616 2.93899 4.50179 3.72039 3.72039C4.50179 2.93899 5.5616 2.5 6.66667 2.5H13.3333ZM13.3333 4.16667H6.66667C6.00363 4.16667 5.36774 4.43006 4.8989 4.8989C4.43006 5.36774 4.16667 6.00363 4.16667 6.66667V13.3333C4.16667 13.9964 4.43006 14.6323 4.8989 15.1011C5.36774 15.5699 6.00363 15.8333 6.66667 15.8333H13.3333C13.9964 15.8333 14.6323 15.5699 15.1011 15.1011C15.5699 14.6323 15.8333 13.9964 15.8333 13.3333V6.66667C15.8333 6.00363 15.5699 5.36774 15.1011 4.8989C14.6323 4.43006 13.9964 4.16667 13.3333 4.16667ZM10 6.66667C10.8841 6.66667 11.7319 7.01786 12.357 7.64298C12.9821 8.2681 13.3333 9.11594 13.3333 10C13.3333 10.8841 12.9821 11.7319 12.357 12.357C11.7319 12.9821 10.8841 13.3333 10 13.3333C9.11594 13.3333 8.2681 12.9821 7.64298 12.357C7.01786 11.7319 6.66667 10.8841 6.66667 10C6.66667 9.11594 7.01786 8.2681 7.64298 7.64298C8.2681 7.01786 9.11594 6.66667 10 6.66667ZM10 8.33333C9.55797 8.33333 9.13405 8.50893 8.82149 8.82149C8.50893 9.13405 8.33333 9.55797 8.33333 10C8.33333 10.442 8.50893 10.866 8.82149 11.1785C9.13405 11.4911 9.55797 11.6667 10 11.6667C10.442 11.6667 10.866 11.4911 11.1785 11.1785C11.4911 10.866 11.6667 10.442 11.6667 10C11.6667 9.55797 11.4911 9.13405 11.1785 8.82149C10.866 8.50893 10.442 8.33333 10 8.33333ZM13.75 5.41667C13.971 5.41667 14.183 5.50446 14.3393 5.66074C14.4955 5.81702 14.5833 6.02899 14.5833 6.25C14.5833 6.47101 14.4955 6.68298 14.3393 6.83926C14.183 6.99554 13.971 7.08333 13.75 7.08333C13.529 7.08333 13.317 6.99554 13.1607 6.83926C13.0045 6.68298 12.9167 6.47101 12.9167 6.25C12.9167 6.02899 13.0045 5.81702 13.1607 5.66074C13.317 5.50446 13.529 5.41667 13.75 5.41667Z" fill="url(#paint0_linear_242_223)"/>
<defs>
<linearGradient id="paint0_linear_242_223" x1="2.5" y1="10" x2="17.5" y2="10" gradientUnits="userSpaceOnUse">
<stop stop-color="#B5020F"/>
<stop offset="1"/>
</linearGradient>
</defs>
</svg>
