<svg width="21" height="21" viewBox="0 0 21 21" fill="none" xmlns="http://www.w3.org/2000/svg">
<path d="M16.625 2.625C17.0891 2.625 17.5342 2.80937 17.8624 3.13756C18.1906 3.46575 18.375 3.91087 18.375 4.375V16.625C18.375 17.0891 18.1906 17.5342 17.8624 17.8624C17.5342 18.1906 17.0891 18.375 16.625 18.375H4.375C3.91087 18.375 3.46575 18.1906 3.13756 17.8624C2.80937 17.5342 2.625 17.0891 2.625 16.625V4.375C2.625 3.91087 2.80937 3.46575 3.13756 3.13756C3.46575 2.80937 3.91087 2.625 4.375 2.625H16.625ZM16.1875 16.1875V11.55C16.1875 10.7935 15.887 10.0679 15.352 9.53298C14.8171 8.99803 14.0915 8.6975 13.335 8.6975C12.5912 8.6975 11.725 9.1525 11.305 9.835V8.86375H8.86375V16.1875H11.305V11.8737C11.305 11.2 11.8475 10.6488 12.5213 10.6488C12.8461 10.6488 13.1577 10.7778 13.3875 11.0075C13.6172 11.2373 13.7463 11.5489 13.7463 11.8737V16.1875H16.1875ZM6.02 7.49C6.40987 7.49 6.78377 7.33513 7.05945 7.05945C7.33513 6.78377 7.49 6.40987 7.49 6.02C7.49 5.20625 6.83375 4.54125 6.02 4.54125C5.62781 4.54125 5.25169 4.69705 4.97437 4.97437C4.69705 5.25169 4.54125 5.62781 4.54125 6.02C4.54125 6.83375 5.20625 7.49 6.02 7.49ZM7.23625 16.1875V8.86375H4.8125V16.1875H7.23625Z" fill="url(#paint0_linear_242_219)"/>
<defs>
<linearGradient id="paint0_linear_242_219" x1="2.625" y1="10.5" x2="18.375" y2="10.5" gradientUnits="userSpaceOnUse">
<stop stop-color="#B5020F"/>
<stop offset="1"/>
</linearGradient>
</defs>
</svg>
