<svg width="24" height="24" viewBox="0 0 24 24" fill="none" xmlns="http://www.w3.org/2000/svg">
<path fill-rule="evenodd" clip-rule="evenodd" d="M6.5998 10.5C6.5998 10.5 7.0078 10.445 7.5998 10.287C9.1608 9.87051 11.9998 8.74001 11.9998 6.02101C11.9999 5.62425 11.9219 5.23135 11.7701 4.86476C11.6183 4.49818 11.3958 4.1651 11.1153 3.88454C10.8347 3.60399 10.5016 3.38147 10.135 3.2297C9.76846 3.07793 9.37556 2.99987 8.9788 3.00001H6.0208C5.62084 2.99486 5.22384 3.06919 4.85283 3.21869C4.48183 3.36819 4.1442 3.58988 3.85955 3.87089C3.5749 4.1519 3.34889 4.48665 3.19463 4.8557C3.04037 5.22475 2.96094 5.62076 2.96094 6.02076C2.96094 6.42075 3.04037 6.81676 3.19463 7.18581C3.34889 7.55486 3.5749 7.88961 3.85955 8.17062C4.1442 8.45163 4.48183 8.67332 4.85283 8.82282C5.22384 8.97232 5.62084 9.04665 6.0208 9.04151H6.5998V10.5ZM7.5998 8.04151H6.0208C5.75276 8.04572 5.48655 7.99657 5.23769 7.89691C4.98883 7.79725 4.76228 7.64908 4.57123 7.46101C4.38019 7.27295 4.22847 7.04876 4.12491 6.8015C4.02135 6.55423 3.96801 6.28883 3.96801 6.02076C3.96801 5.75268 4.02135 5.48728 4.12491 5.24002C4.22847 4.99275 4.38019 4.76856 4.57123 4.5805C4.76228 4.39244 4.98883 4.24426 5.23769 4.1446C5.48655 4.04494 5.75276 3.99579 6.0208 4.00001H8.9788C9.24424 3.99987 9.5071 4.05206 9.75236 4.15358C9.99762 4.2551 10.2205 4.40396 10.4082 4.59165C10.5959 4.77934 10.7447 5.00219 10.8462 5.24745C10.9477 5.49271 10.9999 5.75557 10.9998 6.02101C10.9998 7.31251 10.0958 8.17251 8.8653 8.76601C8.45697 8.96024 8.0338 9.12159 7.5998 9.24851V8.04151ZM7.2498 16C8.3548 16 9.2498 15.105 9.2498 14C9.2498 12.895 8.3548 12 7.2498 12C6.1448 12 5.2498 12.895 5.2498 14C5.2498 15.105 6.1448 16 7.2498 16ZM8.2498 14C8.2498 14.2652 8.14444 14.5196 7.95691 14.7071C7.76937 14.8946 7.51502 15 7.2498 15C6.98459 15 6.73023 14.8946 6.5427 14.7071C6.35516 14.5196 6.2498 14.2652 6.2498 14C6.2498 13.7348 6.35516 13.4804 6.5427 13.2929C6.73023 13.1054 6.98459 13 7.2498 13C7.51502 13 7.76937 13.1054 7.95691 13.2929C8.14444 13.4804 8.2498 13.7348 8.2498 14ZM2.9998 19.1335C2.9998 17.7145 5.8313 17 7.2498 17C8.6683 17 11.4998 17.715 11.4998 19.1335V21H2.9998V19.1335ZM3.9998 20V19.1335C3.9998 19.1285 3.9998 19.1185 4.0128 19.0935C4.0288 19.0625 4.0653 19.008 4.1443 18.935C4.3088 18.7825 4.5843 18.616 4.9658 18.4625C5.7308 18.155 6.6658 18 7.2498 18C7.8338 18 8.7693 18.155 9.5338 18.4625C9.9148 18.616 10.1908 18.7825 10.3553 18.935C10.4343 19.008 10.4708 19.0625 10.4868 19.093C10.4998 19.118 10.4998 19.129 10.4998 19.133V20H3.9998ZM18.7498 14C18.7498 15.105 17.8548 16 16.7498 16C15.6448 16 14.7498 15.105 14.7498 14C14.7498 12.895 15.6448 12 16.7498 12C17.8548 12 18.7498 12.895 18.7498 14ZM16.7498 15C17.015 15 17.2694 14.8946 17.4569 14.7071C17.6444 14.5196 17.7498 14.2652 17.7498 14C17.7498 13.7348 17.6444 13.4804 17.4569 13.2929C17.2694 13.1054 17.015 13 16.7498 13C16.4846 13 16.2302 13.1054 16.0427 13.2929C15.8552 13.4804 15.7498 13.7348 15.7498 14C15.7498 14.2652 15.8552 14.5196 16.0427 14.7071C16.2302 14.8946 16.4846 15 16.7498 15ZM12.4998 19.1335C12.4998 17.7145 15.3313 17 16.7498 17C18.1683 17 20.9998 17.715 20.9998 19.1335V21H12.4998V19.1335ZM13.4998 20V19.1335C13.4998 19.1285 13.4998 19.1185 13.5128 19.0935C13.5288 19.0625 13.5653 19.008 13.6438 18.935C13.8088 18.7825 14.0848 18.616 14.4658 18.4625C15.2308 18.155 16.1658 18 16.7498 18C17.3338 18 18.2693 18.155 19.0338 18.4625C19.4148 18.616 19.6908 18.7825 19.8558 18.935C19.9343 19.008 19.9708 19.0625 19.9868 19.093C19.9998 19.118 19.9998 19.129 19.9998 19.133V20H13.4998ZM16.7998 10.753C17.3848 10.937 17.7998 11 17.7998 11V9.54151H17.9788C18.3788 9.54665 18.7758 9.47232 19.1468 9.32282C19.5178 9.17332 19.8554 8.95163 20.1401 8.67062C20.4247 8.38961 20.6507 8.05486 20.805 7.68581C20.9592 7.31676 21.0387 6.92075 21.0387 6.52076C21.0387 6.12076 20.9592 5.72475 20.805 5.3557C20.6507 4.98665 20.4247 4.6519 20.1401 4.37089C19.8554 4.08988 19.5178 3.86819 19.1468 3.71869C18.7758 3.56919 18.3788 3.49486 17.9788 3.50001H16.0208C15.624 3.49987 15.2311 3.57793 14.8646 3.7297C14.498 3.88147 14.1649 4.10399 13.8843 4.38454C13.6038 4.66509 13.3813 4.99818 13.2295 5.36476C13.0777 5.73135 12.9997 6.12425 12.9998 6.52101C12.9998 9.16901 15.3933 10.311 16.7998 10.753ZM17.9788 8.54151H16.7998V9.69801C16.4823 9.58458 16.1738 9.44753 15.8768 9.28801C14.8348 8.72251 13.9998 7.87401 13.9998 6.52051C13.9997 6.25511 14.052 5.9923 14.1535 5.7471C14.2551 5.5019 14.4039 5.27911 14.5916 5.09147C14.7793 4.90383 15.0021 4.75502 15.2474 4.65353C15.4926 4.55204 15.7554 4.49987 16.0208 4.50001H17.9788C18.2468 4.49579 18.513 4.54494 18.7619 4.6446C19.0108 4.74426 19.2373 4.89244 19.4284 5.0805C19.6194 5.26856 19.7711 5.49275 19.8747 5.74002C19.9783 5.98728 20.0316 6.25268 20.0316 6.52076C20.0316 6.78883 19.9783 7.05423 19.8747 7.3015C19.7711 7.54876 19.6194 7.77295 19.4284 7.96101C19.2373 8.14908 19.0108 8.29725 18.7619 8.39691C18.513 8.49657 18.2468 8.54572 17.9788 8.54151Z" fill="url(#paint0_linear_304_723)"/>
<defs>
<linearGradient id="paint0_linear_304_723" x1="11.9998" y1="2.99976" x2="11.9998" y2="21" gradientUnits="userSpaceOnUse">
<stop stop-color="#B5020F"/>
<stop offset="1" stop-color="#2B2A2A"/>
</linearGradient>
</defs>
</svg>
