<svg width="16" height="16" viewBox="0 0 16 16" fill="none" xmlns="http://www.w3.org/2000/svg">
<g clip-path="url(#clip0_138_359)">
<path d="M14.6654 14.667H1.33203" stroke="#111827" stroke-linecap="round"/>
<path d="M13.9999 14.6673V4.00065C13.9999 2.74332 13.9999 2.11532 13.6093 1.72465C13.2186 1.33398 12.5906 1.33398 11.3333 1.33398H9.99994C8.7426 1.33398 8.1146 1.33398 7.72394 1.72465C7.40927 2.03865 7.34794 2.50732 7.33594 3.33398" stroke="#111827"/>
<path d="M10 14.6673V6.00065C10 4.74332 10 4.11532 9.60933 3.72465C9.21867 3.33398 8.59067 3.33398 7.33333 3.33398H4.66667C3.40933 3.33398 2.78133 3.33398 2.39067 3.72465C2 4.11532 2 4.74332 2 6.00065V14.6673" stroke="#111827"/>
<path d="M6 14.6673V12.6673M4 5.33398H8M4 7.33398H8M4 9.33398H8" stroke="#111827" stroke-linecap="round"/>
</g>
<defs>
<clipPath id="clip0_138_359">
<rect width="16" height="16" fill="white"/>
</clipPath>
</defs>
</svg>
