<svg width="28" height="28" viewBox="0 0 28 28" fill="none" xmlns="http://www.w3.org/2000/svg">
<path d="M2.33325 10.5C2.33325 7.20067 2.33325 5.54983 3.35875 4.5255C4.38309 3.5 6.03392 3.5 9.33325 3.5H18.6666C21.9659 3.5 23.6168 3.5 24.6411 4.5255C25.6666 5.54983 25.6666 7.20067 25.6666 10.5V11.6667C25.6666 14.966 25.6666 16.6168 24.6411 17.6412C23.6168 18.6667 21.9659 18.6667 18.6666 18.6667H9.33325C6.03392 18.6667 4.38309 18.6667 3.35875 17.6412C2.33325 16.6168 2.33325 14.966 2.33325 11.6667V10.5Z" stroke="white" stroke-width="1.75"/>
<path d="M14 22.1667V19.25M14 22.1667L21 24.5M14 22.1667L7 24.5" stroke="white" stroke-width="1.75" stroke-linecap="round"/>
</svg>
