<svg width="28" height="28" viewBox="0 0 28 28" fill="none" xmlns="http://www.w3.org/2000/svg">
<path d="M3.50085 9.62478C3.50073 8.60956 3.75296 7.61022 4.23486 6.71666C4.71675 5.8231 5.41321 5.06334 6.26157 4.5057C7.10994 3.94807 8.08361 3.61006 9.09501 3.52207C10.1064 3.43408 11.1238 3.59888 12.0557 4.00163C12.9877 4.40439 13.8048 5.03247 14.4338 5.8294C15.0628 6.62632 15.4838 7.56708 15.659 8.56707C15.8342 9.56707 15.758 10.5949 15.4374 11.5582C15.1169 12.5215 14.5619 13.39 13.8224 14.0855C15.2166 14.7624 16.4271 15.7654 17.3514 17.0095C18.2756 18.2537 18.8864 19.7022 19.1319 21.2325C19.1589 21.4028 19.1521 21.5768 19.1118 21.7444C19.0716 21.9121 18.9988 22.0702 18.8974 22.2097C18.7961 22.3492 18.6683 22.4674 18.5213 22.5575C18.3743 22.6476 18.211 22.7079 18.0407 22.7349C17.8704 22.7619 17.6965 22.7551 17.5288 22.7149C17.3612 22.6747 17.2031 22.6018 17.0636 22.5005C16.9241 22.3992 16.8059 22.2714 16.7158 22.1244C16.6256 21.9774 16.5654 21.8141 16.5384 21.6438C16.2759 19.9993 15.4357 18.5023 14.1688 17.4215C12.9019 16.3408 11.2911 15.7471 9.62585 15.7471C7.96058 15.7471 6.34985 16.3408 5.08291 17.4215C3.81598 18.5023 2.97583 19.9993 2.71335 21.6438C2.68624 21.8141 2.62584 21.9774 2.53562 22.1243C2.4454 22.2713 2.32712 22.399 2.18753 22.5002C2.04794 22.6015 1.88977 22.6742 1.72207 22.7143C1.55436 22.7545 1.3804 22.7611 1.2101 22.734C1.03981 22.7069 0.87653 22.6465 0.729579 22.5563C0.582627 22.4661 0.454885 22.3478 0.353646 22.2082C0.252407 22.0686 0.179654 21.9104 0.13954 21.7427C0.0994257 21.575 0.0927367 21.4011 0.119855 21.2308C0.364456 19.7006 0.974894 18.2521 1.89928 17.0084C2.82367 15.7647 4.03467 14.7626 5.42935 14.0873C4.82036 13.5145 4.33508 12.823 4.00342 12.0556C3.67175 11.2881 3.50072 10.4608 3.50085 9.62478ZM19.2509 6.99978C20.2676 7.00049 21.2623 7.29634 22.1142 7.85141C22.9661 8.40649 23.6386 9.19692 24.0499 10.1268C24.4613 11.0566 24.5939 12.0859 24.4316 13.0896C24.2694 14.0933 23.8192 15.0284 23.1359 15.7813C24.2016 16.3093 25.1486 17.049 25.9189 17.9553C26.6891 18.8615 27.2666 19.9153 27.6159 21.0523C27.6852 21.2729 27.695 21.5079 27.6441 21.7336C27.5933 21.9592 27.4837 22.1673 27.3264 22.3369C27.1691 22.5064 26.9698 22.6313 26.7486 22.6989C26.5274 22.7665 26.2923 22.7744 26.0671 22.7218C25.842 22.6697 25.6345 22.5591 25.4658 22.4012C25.2971 22.2432 25.1731 22.0435 25.1064 21.8223C24.7923 20.8079 24.2205 19.8923 23.447 19.1647C22.6735 18.4372 21.7246 17.9227 20.6929 17.6713C20.4063 17.6021 20.1513 17.4384 19.9691 17.2067C19.7869 16.9749 19.688 16.6886 19.6884 16.3938V15.7778C19.6882 15.5334 19.7563 15.2939 19.8849 15.0861C20.0135 14.8783 20.1976 14.7106 20.4164 14.6018C20.9469 14.3388 21.3729 13.9043 21.6253 13.3686C21.8777 12.833 21.9416 12.2278 21.8066 11.6513C21.6716 11.0747 21.3456 10.5608 20.8816 10.1929C20.4177 9.82503 19.843 9.62481 19.2509 9.62478C18.9028 9.62478 18.5689 9.4865 18.3228 9.24036C18.0766 8.99422 17.9384 8.66038 17.9384 8.31228C17.9384 7.96418 18.0766 7.63034 18.3228 7.3842C18.5689 7.13806 18.9028 6.99978 19.2509 6.99978ZM9.62585 6.12478C9.15976 6.11424 8.69626 6.19692 8.26256 6.36798C7.82886 6.53903 7.43371 6.79501 7.1003 7.12088C6.76689 7.44676 6.50195 7.83596 6.32103 8.26563C6.1401 8.69531 6.04684 9.1568 6.04673 9.62301C6.04661 10.0892 6.13964 10.5508 6.32035 10.9805C6.50106 11.4103 6.76581 11.7996 7.09905 12.1257C7.4323 12.4517 7.82732 12.7079 8.26093 12.8791C8.69455 13.0504 9.15801 13.1333 9.6241 13.123C10.5386 13.1028 11.4088 12.7254 12.0485 12.0716C12.6882 11.4177 13.0465 10.5395 13.0467 9.62476C13.047 8.71005 12.6891 7.8316 12.0497 7.17746C11.4104 6.52331 10.5403 6.14546 9.62585 6.12478Z" fill="#BD0917"/>
</svg>
