<svg width="20" height="20" viewBox="0 0 20 20" fill="none" xmlns="http://www.w3.org/2000/svg">
<path d="M1.66797 14.167C1.66797 12.5953 1.66797 11.8103 2.1563 11.322C2.64464 10.8337 3.42964 10.8337 5.0013 10.8337H15.0013C16.573 10.8337 17.358 10.8337 17.8463 11.322C18.3346 11.8103 18.3346 12.5953 18.3346 14.167C18.3346 15.7387 18.3346 16.5237 17.8463 17.012C17.358 17.5003 16.573 17.5003 15.0013 17.5003H5.0013C3.42964 17.5003 2.64464 17.5003 2.1563 17.012C1.66797 16.5237 1.66797 15.7387 1.66797 14.167ZM1.66797 5.00033C1.66797 3.42866 1.66797 2.64366 2.1563 2.15533C2.64464 1.66699 3.42964 1.66699 5.0013 1.66699H15.0013C16.573 1.66699 17.358 1.66699 17.8463 2.15533C18.3346 2.64366 18.3346 3.42866 18.3346 5.00033C18.3346 6.57199 18.3346 7.35699 17.8463 7.84533C17.358 8.33366 16.573 8.33366 15.0013 8.33366H5.0013C3.42964 8.33366 2.64464 8.33366 2.1563 7.84533C1.66797 7.35699 1.66797 6.57199 1.66797 5.00033Z" stroke="#171717" stroke-width="1.25"/>
<path d="M9.16667 5H15M5 5H6.66667M9.16667 14.1667H15M5 14.1667H6.66667" stroke="#171717" stroke-width="1.25" stroke-linecap="round"/>
</svg>
