<svg width="24" height="24" viewBox="0 0 24 24" fill="none" xmlns="http://www.w3.org/2000/svg">
<path d="M0.75 11.4375C0.75 7.19513 0.75 5.07337 2.0685 3.756C3.387 2.43862 5.50763 2.4375 9.75 2.4375H14.25C18.4924 2.4375 20.6141 2.4375 21.9315 3.756C23.2489 5.0745 23.25 7.19513 23.25 11.4375V13.6875C23.25 17.9299 23.25 20.0516 21.9315 21.369C20.613 22.6864 18.4924 22.6875 14.25 22.6875H9.75C5.50763 22.6875 3.38587 22.6875 2.0685 21.369C0.751125 20.0505 0.75 17.9299 0.75 13.6875V11.4375Z" stroke="#BD0917" stroke-width="1.5"/>
<path d="M6.375 2.4375V0.75M17.625 2.4375V0.75M1.3125 8.0625H22.6875" stroke="#BD0917" stroke-width="1.5" stroke-linecap="round"/>
<path d="M18.75 17.0625C18.75 17.3609 18.6315 17.647 18.4205 17.858C18.2095 18.069 17.9234 18.1875 17.625 18.1875C17.3266 18.1875 17.0405 18.069 16.8295 17.858C16.6185 17.647 16.5 17.3609 16.5 17.0625C16.5 16.7641 16.6185 16.478 16.8295 16.267C17.0405 16.056 17.3266 15.9375 17.625 15.9375C17.9234 15.9375 18.2095 16.056 18.4205 16.267C18.6315 16.478 18.75 16.7641 18.75 17.0625ZM18.75 12.5625C18.75 12.8609 18.6315 13.147 18.4205 13.358C18.2095 13.569 17.9234 13.6875 17.625 13.6875C17.3266 13.6875 17.0405 13.569 16.8295 13.358C16.6185 13.147 16.5 12.8609 16.5 12.5625C16.5 12.2641 16.6185 11.978 16.8295 11.767C17.0405 11.556 17.3266 11.4375 17.625 11.4375C17.9234 11.4375 18.2095 11.556 18.4205 11.767C18.6315 11.978 18.75 12.2641 18.75 12.5625ZM13.125 17.0625C13.125 17.3609 13.0065 17.647 12.7955 17.858C12.5845 18.069 12.2984 18.1875 12 18.1875C11.7016 18.1875 11.4155 18.069 11.2045 17.858C10.9935 17.647 10.875 17.3609 10.875 17.0625C10.875 16.7641 10.9935 16.478 11.2045 16.267C11.4155 16.056 11.7016 15.9375 12 15.9375C12.2984 15.9375 12.5845 16.056 12.7955 16.267C13.0065 16.478 13.125 16.7641 13.125 17.0625ZM13.125 12.5625C13.125 12.8609 13.0065 13.147 12.7955 13.358C12.5845 13.569 12.2984 13.6875 12 13.6875C11.7016 13.6875 11.4155 13.569 11.2045 13.358C10.9935 13.147 10.875 12.8609 10.875 12.5625C10.875 12.2641 10.9935 11.978 11.2045 11.767C11.4155 11.556 11.7016 11.4375 12 11.4375C12.2984 11.4375 12.5845 11.556 12.7955 11.767C13.0065 11.978 13.125 12.2641 13.125 12.5625ZM7.5 17.0625C7.5 17.3609 7.38147 17.647 7.17049 17.858C6.95952 18.069 6.67337 18.1875 6.375 18.1875C6.07663 18.1875 5.79048 18.069 5.57951 17.858C5.36853 17.647 5.25 17.3609 5.25 17.0625C5.25 16.7641 5.36853 16.478 5.57951 16.267C5.79048 16.056 6.07663 15.9375 6.375 15.9375C6.67337 15.9375 6.95952 16.056 7.17049 16.267C7.38147 16.478 7.5 16.7641 7.5 17.0625ZM7.5 12.5625C7.5 12.8609 7.38147 13.147 7.17049 13.358C6.95952 13.569 6.67337 13.6875 6.375 13.6875C6.07663 13.6875 5.79048 13.569 5.57951 13.358C5.36853 13.147 5.25 12.8609 5.25 12.5625C5.25 12.2641 5.36853 11.978 5.57951 11.767C5.79048 11.556 6.07663 11.4375 6.375 11.4375C6.67337 11.4375 6.95952 11.556 7.17049 11.767C7.38147 11.978 7.5 12.2641 7.5 12.5625Z" fill="#BD0917"/>
</svg>
