<svg width="28" height="28" viewBox="0 0 28 28" fill="none" xmlns="http://www.w3.org/2000/svg">
<g clip-path="url(#clip0_385_137)">
<path d="M14 0C21.7322 0 28 6.2678 28 14C28 21.7322 21.7322 28 14 28C6.2678 28 0 21.7322 0 14C0 6.2678 6.2678 0 14 0ZM14 1.953C10.8049 1.953 7.74074 3.22223 5.48148 5.48148C3.22223 7.74074 1.953 10.8049 1.953 14C1.953 17.1951 3.22223 20.2593 5.48148 22.5185C7.74074 24.7778 10.8049 26.047 14 26.047C17.1951 26.047 20.2593 24.7778 22.5185 22.5185C24.7778 20.2593 26.047 17.1951 26.047 14C26.047 10.8049 24.7778 7.74074 22.5185 5.48148C20.2593 3.22223 17.1951 1.953 14 1.953ZM16.8672 4.8832C17.7774 5.22732 18.6285 5.71097 19.39 6.3168C19.5645 6.4512 19.7339 6.59447 19.8982 6.7466C19.9281 6.77273 19.957 6.80073 19.985 6.8306C20.4442 7.2548 20.8614 7.7322 21.231 8.2446L21.385 8.4504C21.4737 8.58293 21.5595 8.71827 21.6426 8.8564C21.7098 8.96467 21.7747 9.0748 21.8372 9.1868C21.9081 9.31187 21.9763 9.43927 22.0416 9.569C22.1144 9.71367 22.1839 9.86113 22.2502 10.0114C22.2964 10.1136 22.3482 10.2186 22.3902 10.3278C22.4919 10.5817 22.5839 10.8393 22.666 11.1006L22.7388 11.3666C22.8792 11.8651 22.9798 12.374 23.0398 12.8884C23.0496 12.9808 23.0636 13.0788 23.0706 13.1698C23.0995 13.4713 23.1149 13.7746 23.1168 14.0798C23.1164 14.6762 23.0616 15.2714 22.953 15.8578L22.897 16.1616C22.841 16.4267 22.7757 16.688 22.701 16.9456C21.9884 16.6194 21.1512 16.1392 20.9328 15.6114C20.5352 14.6594 19.4768 14.1834 19.0456 12.957C18.3358 10.927 19.278 10.9802 19.4096 9.7202C19.4712 9.1294 19.0456 9.0062 18.4842 9.247C17.1738 9.7972 16.73 9.5858 16.4654 8.5988C16.2008 7.6146 16.4654 7.3402 16.4654 7.3402C15.5722 7.4382 15.5386 6.3504 16.002 6.076C16.324 5.8912 16.597 5.3242 16.8672 4.8832ZM13.1236 10.9158C13.9496 10.5378 14.7126 10.402 14.6118 9.7524C14.5138 9.1098 14.2814 8.631 12.9906 8.631C11.6998 8.631 12.2626 10.402 11.2042 9.345C10.1458 8.295 11.4352 8.5666 11.9644 8.3272C12.495 8.0864 13.0242 7.0994 12.0974 7.0294C11.172 6.9636 11.3694 7.4382 10.6414 7.1694C9.9134 6.895 9.583 8.12 9.1182 7.9492C8.813 7.8344 7.994 7.2044 7.4508 6.5842C6.34237 7.54828 5.46487 8.74923 4.8832 10.0982C5.0414 11.928 6.0088 12.8884 6.0088 12.8884C6.0088 12.8884 6.5058 14.0798 9.485 15.5442C9.485 15.5442 10.045 15.5778 9.3842 14.8988C8.7234 14.217 7.994 13.3658 8.8214 12.9248C9.6474 12.4782 9.8812 12.516 10.08 13.335C10.2774 14.1526 10.941 13.671 11.0054 12.8884C11.0726 12.1086 12.2962 11.2938 13.1236 10.9158ZM12.4936 15.0304C13.9188 15.0304 13.7858 15.4742 14.9114 16.4654C16.0356 17.451 15.4406 18.438 14.8764 19.1884C14.315 19.936 13.818 20.7844 13.5534 22.3216C13.2874 23.8532 12.593 22.7612 12.3634 22.3874C12.131 22.0108 11.767 21.672 11.8678 20.1054C11.9658 18.5402 10.906 19.4614 10.5434 17.4174C10.1794 15.3762 11.0726 15.0318 12.495 15.0318M19.4628 16.3814C19.8422 16.1392 20.7508 16.7706 20.5548 17.4356C20.3546 18.1006 19.7274 17.7254 19.4124 17.4356C19.0974 17.1472 19.0806 16.6194 19.4628 16.3814Z" fill="url(#paint0_linear_385_137)"/>
</g>
<defs>
<linearGradient id="paint0_linear_385_137" x1="14" y1="0" x2="14" y2="28" gradientUnits="userSpaceOnUse">
<stop stop-color="#BD0917"/>
<stop offset="1" stop-color="#57040B"/>
</linearGradient>
<clipPath id="clip0_385_137">
<rect width="28" height="28" fill="white"/>
</clipPath>
</defs>
</svg>
