<svg width="20" height="20" viewBox="0 0 20 20" fill="none" xmlns="http://www.w3.org/2000/svg">
<path d="M2.5 8.68116C2.5 6.01616 2.5 4.68366 2.815 4.23533C3.12917 3.78783 4.38167 3.35866 6.8875 2.50116L7.365 2.33783C8.67083 1.89033 9.32333 1.66699 10 1.66699C10.6767 1.66699 11.3292 1.89033 12.635 2.33783L13.1125 2.50116C15.6183 3.35866 16.8708 3.78783 17.185 4.23533C17.5 4.68366 17.5 6.01699 17.5 8.68116V9.99283C17.5 14.6912 13.9675 16.972 11.7508 17.9395C11.15 18.202 10.85 18.3337 10 18.3337C9.15 18.3337 8.85 18.202 8.24917 17.9395C6.0325 16.9712 2.5 14.692 2.5 9.99283V8.68116Z" stroke="#171717" stroke-width="1.25"/>
<path d="M7.91797 10.334L9.1088 11.6673L12.0846 8.33398" stroke="#171717" stroke-width="1.25" stroke-linecap="round" stroke-linejoin="round"/>
</svg>
