<svg width="24" height="24" viewBox="0 0 24 24" fill="none" xmlns="http://www.w3.org/2000/svg">
<path d="M13.7961 20.804C13.8601 20.8293 13.9177 20.842 13.9691 20.842C14.0204 20.842 14.0781 20.8293 14.1421 20.804L19.9581 19.012C19.9381 18.708 19.8474 18.489 19.6861 18.355C19.5234 18.221 19.3397 18.154 19.1351 18.154H14.3901C13.9674 18.154 13.5841 18.1373 13.2401 18.104C12.8961 18.0706 12.5444 17.9913 12.1851 17.866L10.4711 17.314C10.3344 17.2686 10.2361 17.1786 10.1761 17.044C10.1161 16.9093 10.1087 16.776 10.1541 16.644C10.1994 16.512 10.2847 16.4153 10.4101 16.354C10.5354 16.2926 10.6681 16.285 10.8081 16.331L12.3581 16.892C12.6794 17.0013 13.0354 17.0713 13.4261 17.102C13.8161 17.1326 14.2991 17.15 14.8751 17.154H15.1351C15.1351 16.842 15.0774 16.59 14.9621 16.398C14.8467 16.206 14.6824 16.072 14.4691 15.996L8.71505 13.884C8.67705 13.8713 8.64172 13.862 8.60905 13.856C8.57639 13.85 8.54139 13.8466 8.50405 13.846H6.40405V18.654L13.7961 20.804ZM13.5411 21.792L6.40405 19.704C6.30872 20.0986 6.10705 20.4133 5.79905 20.648C5.49105 20.8826 5.15439 21 4.78905 21H4.01905C3.57505 21 3.19505 20.8416 2.87905 20.525C2.56239 20.209 2.40405 19.829 2.40405 19.385V14.46C2.40405 14.016 2.56205 13.636 2.87805 13.32C3.19472 13.0033 3.57505 12.845 4.01905 12.845H8.48205C8.57539 12.845 8.67105 12.8556 8.76905 12.877C8.86772 12.8976 8.95939 12.9223 9.04405 12.951L14.8231 15.068C15.1811 15.204 15.4891 15.4483 15.7471 15.801C16.0057 16.1536 16.1351 16.6043 16.1351 17.153H19.1351C19.7371 17.153 20.1984 17.3413 20.5191 17.718C20.8397 18.0953 21.0001 18.5736 21.0001 19.153C21.0001 19.353 20.9461 19.5216 20.8381 19.659C20.7301 19.7963 20.5717 19.9 20.3631 19.97L14.4791 21.785C14.3337 21.8263 14.1804 21.8503 14.0191 21.857C13.8577 21.8636 13.6981 21.8416 13.5401 21.791M3.40405 19.384C3.40405 19.564 3.46172 19.7116 3.57705 19.827C3.69239 19.9423 3.83972 20 4.01905 20H4.78905C4.96839 20 5.11572 19.952 5.23105 19.856C5.34639 19.76 5.40405 19.6026 5.40405 19.384V13.846H4.01905C3.83972 13.846 3.69239 13.9036 3.57705 14.019C3.46172 14.1343 3.40405 14.282 3.40405 14.462V19.384ZM13.9821 3.10398C14.1421 3.15664 14.2941 3.23031 14.4381 3.32498L19.3231 6.80398C19.5384 6.94864 19.7051 7.14031 19.8231 7.37898C19.9411 7.61698 20.0001 7.86431 20.0001 8.12098V14.269C20.0001 14.411 19.9521 14.5296 19.8561 14.625C19.7601 14.7203 19.6411 14.7683 19.4991 14.769C19.3571 14.7696 19.2384 14.7216 19.1431 14.625C19.0477 14.5283 19.0001 14.41 19.0001 14.27V8.09598C19.0001 7.99331 18.9777 7.89731 18.9331 7.80798C18.8877 7.71798 18.8204 7.64098 18.7311 7.57698L13.8461 4.17298C13.7434 4.09631 13.6281 4.05798 13.5001 4.05798C13.3721 4.05798 13.2567 4.09631 13.1541 4.17298L8.26905 7.57698C8.17905 7.64098 8.11172 7.71764 8.06705 7.80698C8.02239 7.89764 8.00005 7.99464 8.00005 8.09798V9.96298C8.00005 10.1043 7.95205 10.223 7.85605 10.319C7.76005 10.415 7.64105 10.463 7.49905 10.463C7.35705 10.463 7.23839 10.415 7.14305 10.319C7.04772 10.223 7.00005 10.104 7.00005 9.96198V8.12198C7.00005 7.86464 7.05905 7.61698 7.17705 7.37898C7.29505 7.14031 7.46172 6.94864 7.67705 6.80398L12.5621 3.32498C12.7067 3.23031 12.8577 3.15698 13.0151 3.10498C13.1717 3.05298 13.3321 3.02698 13.4961 3.02698C13.6601 3.02698 13.8221 3.05198 13.9821 3.10398ZM12.7821 8.32098C12.8634 8.24031 12.9041 8.14598 12.9041 8.03798C12.9041 7.92998 12.8637 7.83598 12.7831 7.75598C12.7024 7.67598 12.6081 7.63531 12.5001 7.63398C12.3921 7.63264 12.2977 7.67331 12.2171 7.75598C12.1364 7.83864 12.0964 7.93264 12.0971 8.03798C12.0977 8.14331 12.1377 8.23764 12.2171 8.32098C12.2964 8.40431 12.3907 8.44464 12.5001 8.44198C12.6094 8.43931 12.7037 8.39931 12.7831 8.32198M14.7831 8.32198C14.8631 8.24064 14.9031 8.14598 14.9031 8.03798C14.9031 7.92998 14.8631 7.83598 14.7831 7.75598C14.7024 7.67464 14.6081 7.63398 14.5001 7.63398C14.3921 7.63398 14.2977 7.67464 14.2171 7.75598C14.1371 7.83664 14.0971 7.93064 14.0971 8.03798C14.0971 8.14531 14.1371 8.23964 14.2171 8.32098C14.2977 8.40164 14.3921 8.44198 14.5001 8.44198C14.6081 8.44198 14.7024 8.40198 14.7831 8.32198ZM12.7831 10.322C12.8631 10.2406 12.9031 10.146 12.9031 10.038C12.9031 9.92998 12.8631 9.83598 12.7831 9.75598C12.7024 9.67464 12.6081 9.63398 12.5001 9.63398C12.3921 9.63398 12.2977 9.67464 12.2171 9.75598C12.1371 9.83664 12.0971 9.93064 12.0971 10.038C12.0971 10.1453 12.1371 10.2396 12.2171 10.321C12.2977 10.4016 12.3921 10.442 12.5001 10.442C12.6081 10.442 12.7024 10.402 12.7831 10.322ZM14.7831 10.322C14.8631 10.2406 14.9031 10.146 14.9031 10.038C14.9031 9.92998 14.8631 9.83598 14.7831 9.75598C14.7024 9.67464 14.6081 9.63398 14.5001 9.63398C14.3921 9.63398 14.2977 9.67464 14.2171 9.75598C14.1371 9.83664 14.0971 9.93064 14.0971 10.038C14.0971 10.1453 14.1371 10.2396 14.2171 10.321C14.2977 10.4016 14.3921 10.442 14.5001 10.442C14.6081 10.442 14.7024 10.402 14.7831 10.322Z" fill="black"/>
</svg>
