<svg width="24" height="24" viewBox="0 0 24 24" fill="none" xmlns="http://www.w3.org/2000/svg">
<path d="M18.709 3.495C16.817 2.554 14.5 2 12 2C9.5 2 7.184 2.554 5.291 3.495C4.363 3.957 3.899 4.188 3.45 4.914C3.001 5.64 3 6.342 3 7.748V11.238C3 16.921 7.542 20.08 10.173 21.434C10.907 21.811 11.273 22 12 22C12.727 22 13.093 21.811 13.827 21.434C16.457 20.08 21 16.92 21 11.237V7.748C21 6.342 21 5.64 20.55 4.914C20.1 4.188 19.637 3.957 18.709 3.495Z" stroke="#107C5A" stroke-width="2.5" stroke-linecap="round" stroke-linejoin="round"/>
<path d="M9 11.5C9 11.5 10.408 11.752 11 13.5C11 13.5 12.5 10.5 15 9.5" stroke="#107C5A" stroke-width="2.5" stroke-linecap="round" stroke-linejoin="round"/>
</svg>
