<svg width="18" height="18" viewBox="0 0 18 18" fill="none" xmlns="http://www.w3.org/2000/svg">
<path d="M5.625 3.125C5.625 3.78804 5.36161 4.42393 4.89277 4.89277C4.42393 5.36161 3.78804 5.625 3.125 5.625C2.46196 5.625 1.82607 5.36161 1.35723 4.89277C0.888392 4.42393 0.625 3.78804 0.625 3.125C0.625 2.46196 0.888392 1.82607 1.35723 1.35723C1.82607 0.888392 2.46196 0.625 3.125 0.625C3.78804 0.625 4.42393 0.888392 4.89277 1.35723C5.36161 1.82607 5.625 2.46196 5.625 3.125ZM17.2917 3.125C17.2917 3.78804 17.0283 4.42393 16.5594 4.89277C16.0906 5.36161 15.4547 5.625 14.7917 5.625C14.1286 5.625 13.4927 5.36161 13.0239 4.89277C12.5551 4.42393 12.2917 3.78804 12.2917 3.125C12.2917 2.46196 12.5551 1.82607 13.0239 1.35723C13.4927 0.888392 14.1286 0.625 14.7917 0.625C15.4547 0.625 16.0906 0.888392 16.5594 1.35723C17.0283 1.82607 17.2917 2.46196 17.2917 3.125ZM5.625 14.7917C5.625 15.4547 5.36161 16.0906 4.89277 16.5594C4.42393 17.0283 3.78804 17.2917 3.125 17.2917C2.46196 17.2917 1.82607 17.0283 1.35723 16.5594C0.888392 16.0906 0.625 15.4547 0.625 14.7917C0.625 14.1286 0.888392 13.4927 1.35723 13.0239C1.82607 12.5551 2.46196 12.2917 3.125 12.2917C3.78804 12.2917 4.42393 12.5551 4.89277 13.0239C5.36161 13.4927 5.625 14.1286 5.625 14.7917ZM17.2917 14.7917C17.2917 15.4547 17.0283 16.0906 16.5594 16.5594C16.0906 17.0283 15.4547 17.2917 14.7917 17.2917C14.1286 17.2917 13.4927 17.0283 13.0239 16.5594C12.5551 16.0906 12.2917 15.4547 12.2917 14.7917C12.2917 14.1286 12.5551 13.4927 13.0239 13.0239C13.4927 12.5551 14.1286 12.2917 14.7917 12.2917C15.4547 12.2917 16.0906 12.5551 16.5594 13.0239C17.0283 13.4927 17.2917 14.1286 17.2917 14.7917Z" stroke="#171717" stroke-width="1.25"/>
<path d="M5.625 14.7917H12.2917M5.625 3.125H12.2917M14.7917 12.2917V5.625M3.125 12.2917V5.625" stroke="#171717" stroke-width="1.25" stroke-linecap="round"/>
</svg>
