<svg width="14" height="14" viewBox="0 0 14 14" fill="none" xmlns="http://www.w3.org/2000/svg">
<path d="M5.8801 4.60658C6.50835 3.48016 6.82219 2.91666 7.29177 2.91666C7.76135 2.91666 8.07519 3.48016 8.70344 4.60658L8.8656 4.89824C9.0441 5.21849 9.13394 5.37833 9.27277 5.48391C9.4116 5.58949 9.58485 5.62858 9.93194 5.70733L10.2469 5.77849C11.4667 6.05441 12.0769 6.19266 12.2215 6.65933C12.3668 7.12599 11.9509 7.61191 11.119 8.58433L10.9044 8.83516C10.6681 9.11166 10.5503 9.24991 10.4966 9.42083C10.4441 9.59174 10.4616 9.77608 10.4972 10.1442L10.5299 10.4802C10.6559 11.7775 10.7183 12.4262 10.3385 12.7143C9.95877 13.0025 9.38769 12.74 8.2461 12.2144L7.95035 12.0779C7.62602 11.9286 7.46385 11.8539 7.29177 11.8539C7.11969 11.8539 6.95752 11.9286 6.6326 12.0779L6.33744 12.2144C5.19585 12.7394 4.62477 13.0031 4.24502 12.7143C3.86527 12.4262 3.92827 11.7775 4.05369 10.4802L4.08635 10.1447C4.12194 9.77608 4.14002 9.59174 4.08635 9.42141C4.03385 9.24991 3.91544 9.11224 3.67919 8.83574L3.46394 8.58374C2.63269 7.61191 2.21677 7.12541 2.36144 6.65874C2.50727 6.19208 3.11685 6.05441 4.3366 5.77849L4.6516 5.70733C4.99869 5.62858 5.17194 5.58949 5.31077 5.48391C5.45019 5.37891 5.53944 5.21849 5.71794 4.89824L5.8801 4.60658ZM2.83977 1.45833C2.85727 1.39708 2.96635 1.39649 2.98444 1.45833C3.0661 1.73949 3.21777 2.15483 3.44702 2.38291C3.67627 2.61041 4.09335 2.75974 4.37452 2.83966C4.43694 2.85716 4.43694 2.96624 4.37569 2.98433C4.09452 3.06599 3.6786 3.21766 3.45052 3.44691C3.22302 3.67616 3.07427 4.09324 2.99435 4.37441C2.97685 4.43683 2.86719 4.43683 2.8491 4.37558C2.76744 4.09441 2.61577 3.67849 2.38652 3.45041C2.15727 3.22291 1.74077 3.07416 1.45902 2.99424C1.39719 2.97674 1.3966 2.86708 1.45844 2.84899C1.7396 2.76733 2.15494 2.61566 2.38302 2.38641C2.61052 2.15716 2.75985 1.74008 2.83977 1.45833Z" fill="#B5020F"/>
<path fill-rule="evenodd" clip-rule="evenodd" d="M11.0833 1.89584C11.1994 1.89584 11.3106 1.94194 11.3927 2.02398C11.4747 2.10603 11.5208 2.21731 11.5208 2.33334V2.47918H11.6667C11.7827 2.47918 11.894 2.52527 11.976 2.60732C12.0581 2.68936 12.1042 2.80064 12.1042 2.91668C12.1042 3.03271 12.0581 3.14399 11.976 3.22604C11.894 3.30808 11.7827 3.35418 11.6667 3.35418H11.5208V3.50001C11.5208 3.61604 11.4747 3.72732 11.3927 3.80937C11.3106 3.89142 11.1994 3.93751 11.0833 3.93751C10.9673 3.93751 10.856 3.89142 10.774 3.80937C10.6919 3.72732 10.6458 3.61604 10.6458 3.50001V3.35418H10.5C10.384 3.35418 10.2727 3.30808 10.1906 3.22604C10.1086 3.14399 10.0625 3.03271 10.0625 2.91668C10.0625 2.80064 10.1086 2.68936 10.1906 2.60732C10.2727 2.52527 10.384 2.47918 10.5 2.47918H10.6458V2.33334C10.6458 2.21731 10.6919 2.10603 10.774 2.02398C10.856 1.94194 10.9673 1.89584 11.0833 1.89584Z" fill="#B5020F"/>
</svg>
