<svg width="24" height="24" viewBox="0 0 24 24" fill="none" xmlns="http://www.w3.org/2000/svg">
<g clip-path="url(#clip0_310_746)">
<path d="M15 11.25H9C9 10.4544 9.31607 9.69129 9.87868 9.12868C10.4413 8.56607 11.2044 8.25 12 8.25C12.7956 8.25 13.5587 8.56607 14.1213 9.12868C14.6839 9.69129 15 10.4544 15 11.25Z" stroke="url(#paint0_linear_310_746)" stroke-width="1.5" stroke-linecap="round" stroke-linejoin="round"/>
<path d="M9.75 6C9.75 6.59674 9.98705 7.16903 10.409 7.59099C10.831 8.01295 11.4033 8.25 12 8.25C12.5967 8.25 13.169 8.01295 13.591 7.59099C14.0129 7.16903 14.25 6.59674 14.25 6C14.25 5.40326 14.0129 4.83097 13.591 4.40901C13.169 3.98705 12.5967 3.75 12 3.75C11.4033 3.75 10.831 3.98705 10.409 4.40901C9.98705 4.83097 9.75 5.40326 9.75 6Z" stroke="url(#paint1_linear_310_746)" stroke-width="1.5" stroke-linecap="round" stroke-linejoin="round"/>
<path d="M6.75 0.75H17.25C17.25 0.75 20.25 0.75 20.25 3.75V8.25C20.25 8.25 20.25 11.25 17.25 11.25H6.75C6.75 11.25 3.75 11.25 3.75 8.25V3.75C3.75 3.75 3.75 0.75 6.75 0.75ZM2.25 18C2.25 18.5967 2.48705 19.169 2.90901 19.591C3.33097 20.0129 3.90326 20.25 4.5 20.25C5.09674 20.25 5.66903 20.0129 6.09099 19.591C6.51295 19.169 6.75 18.5967 6.75 18C6.75 17.4033 6.51295 16.831 6.09099 16.409C5.66903 15.9871 5.09674 15.75 4.5 15.75C3.90326 15.75 3.33097 15.9871 2.90901 16.409C2.48705 16.831 2.25 17.4033 2.25 18Z" stroke="url(#paint2_linear_310_746)" stroke-width="1.5" stroke-linecap="round" stroke-linejoin="round"/>
<path d="M8.25 23.25C7.88751 22.5703 7.34712 22.002 6.68661 21.6057C6.02609 21.2093 5.27029 21 4.5 21C3.72971 21 2.97391 21.2093 2.31339 21.6057C1.65288 22.002 1.11249 22.5703 0.75 23.25M17.25 18C17.25 18.5967 17.4871 19.169 17.909 19.591C18.331 20.0129 18.9033 20.25 19.5 20.25C20.0967 20.25 20.669 20.0129 21.091 19.591C21.5129 19.169 21.75 18.5967 21.75 18C21.75 17.4033 21.5129 16.831 21.091 16.409C20.669 15.9871 20.0967 15.75 19.5 15.75C18.9033 15.75 18.331 15.9871 17.909 16.409C17.4871 16.831 17.25 17.4033 17.25 18Z" stroke="url(#paint3_linear_310_746)" stroke-width="1.5" stroke-linecap="round" stroke-linejoin="round"/>
<path d="M23.25 23.25C22.8875 22.5703 22.3471 22.002 21.6866 21.6057C21.0261 21.2093 20.2703 21 19.5 21C18.7297 21 17.9739 21.2093 17.3134 21.6057C16.6529 22.002 16.1125 22.5703 15.75 23.25M9.75 18C9.75 18.5967 9.98705 19.169 10.409 19.591C10.831 20.0129 11.4033 20.25 12 20.25C12.5967 20.25 13.169 20.0129 13.591 19.591C14.0129 19.169 14.25 18.5967 14.25 18C14.25 17.4033 14.0129 16.831 13.591 16.409C13.169 15.9871 12.5967 15.75 12 15.75C11.4033 15.75 10.831 15.9871 10.409 16.409C9.98705 16.831 9.75 17.4033 9.75 18Z" stroke="url(#paint4_linear_310_746)" stroke-width="1.5" stroke-linecap="round" stroke-linejoin="round"/>
<path d="M15.75 23.25C15.3875 22.5703 14.8471 22.002 14.1866 21.6057C13.5261 21.2093 12.7703 21 12 21C11.2297 21 10.4739 21.2093 9.81339 21.6057C9.15288 22.002 8.61249 22.5703 8.25 23.25" stroke="url(#paint5_linear_310_746)" stroke-width="1.5" stroke-linecap="round" stroke-linejoin="round"/>
</g>
<defs>
<linearGradient id="paint0_linear_310_746" x1="12" y1="8.25" x2="12" y2="11.25" gradientUnits="userSpaceOnUse">
<stop stop-color="#B5020F"/>
<stop offset="1" stop-color="#666666"/>
</linearGradient>
<linearGradient id="paint1_linear_310_746" x1="12" y1="3.75" x2="12" y2="8.25" gradientUnits="userSpaceOnUse">
<stop stop-color="#B5020F"/>
<stop offset="1" stop-color="#666666"/>
</linearGradient>
<linearGradient id="paint2_linear_310_746" x1="11.25" y1="0.75" x2="11.25" y2="20.25" gradientUnits="userSpaceOnUse">
<stop stop-color="#B5020F"/>
<stop offset="1" stop-color="#666666"/>
</linearGradient>
<linearGradient id="paint3_linear_310_746" x1="11.25" y1="15.75" x2="11.25" y2="23.25" gradientUnits="userSpaceOnUse">
<stop stop-color="#B5020F"/>
<stop offset="1" stop-color="#666666"/>
</linearGradient>
<linearGradient id="paint4_linear_310_746" x1="16.5" y1="15.75" x2="16.5" y2="23.25" gradientUnits="userSpaceOnUse">
<stop stop-color="#B5020F"/>
<stop offset="1" stop-color="#666666"/>
</linearGradient>
<linearGradient id="paint5_linear_310_746" x1="12" y1="21" x2="12" y2="23.25" gradientUnits="userSpaceOnUse">
<stop stop-color="#B5020F"/>
<stop offset="1" stop-color="#666666"/>
</linearGradient>
<clipPath id="clip0_310_746">
<rect width="24" height="24" fill="white"/>
</clipPath>
</defs>
</svg>
