<svg width="24" height="24" viewBox="0 0 24 24" fill="none" xmlns="http://www.w3.org/2000/svg">
<path d="M15.5001 8.99992L15.6721 9.17192C17.0051 10.5049 17.6721 11.1719 17.6721 11.9999C17.6721 12.8279 17.0051 13.4949 15.6721 14.8279L15.5001 14.9999M13.2941 7.16992L12.0001 11.9999L10.7061 16.8299M8.5001 8.99992L8.3291 9.17192C6.9951 10.5049 6.3291 11.1719 6.3291 11.9999C6.3291 12.8279 6.9951 13.4949 8.3291 14.8279L8.5001 14.9999" stroke="#FB923C" stroke-width="1.5" stroke-linecap="round"/>
<path d="M2 12C2 7.286 2 4.929 3.464 3.464C4.93 2 7.286 2 12 2C16.714 2 19.071 2 20.535 3.464C22 4.93 22 7.286 22 12C22 16.714 22 19.071 20.535 20.535C19.072 22 16.714 22 12 22C7.286 22 4.929 22 3.464 20.535C2 19.072 2 16.714 2 12Z" stroke="#FB923C" stroke-width="1.5"/>
</svg>
