<svg width="24" height="24" viewBox="0 0 24 24" fill="none" xmlns="http://www.w3.org/2000/svg">
<path d="M7 10C7 8.586 7 7.879 7.44 7.44C7.878 7 8.585 7 10 7H14C15.414 7 16.121 7 16.56 7.44C17 7.879 17 8.586 17 10V14C17 15.414 17 16.121 16.56 16.56C16.121 17 15.414 17 14 17H10C8.586 17 7.879 17 7.44 16.56C7 16.122 7 15.415 7 14V10Z" stroke="#B5020F" stroke-width="1.5"/>
<path d="M12.429 10L11 12H13L11.571 14" stroke="#B5020F" stroke-width="1.5" stroke-linecap="round" stroke-linejoin="round"/>
<path d="M4 12C4 8.229 4 6.343 5.172 5.172C6.344 4.001 8.229 4 12 4C15.771 4 17.657 4 18.828 5.172C19.999 6.344 20 8.229 20 12C20 15.771 20 17.657 18.828 18.828C17.656 19.999 15.771 20 12 20C8.229 20 6.343 20 5.172 18.828C4.001 17.656 4 15.771 4 12Z" stroke="#B5020F" stroke-width="1.5"/>
<path d="M4 12H2M22 12H20M4 9H2M22 9H20M4 15H2M22 15H20M12 20V22M12 2V4M9 20V22M9 2V4M15 20V22M15 2V4" stroke="#B5020F" stroke-width="1.5" stroke-linecap="round"/>
</svg>
