<svg width="20" height="20" viewBox="0 0 20 20" fill="none" xmlns="http://www.w3.org/2000/svg">
<g clip-path="url(#clip0_346_1875)">
<path d="M9.9974 8.33366C11.8383 8.33366 13.3307 6.84127 13.3307 5.00033C13.3307 3.15938 11.8383 1.66699 9.9974 1.66699C8.15645 1.66699 6.66406 3.15938 6.66406 5.00033C6.66406 6.84127 8.15645 8.33366 9.9974 8.33366Z" stroke="url(#paint0_linear_346_1875)" stroke-width="1.25"/>
<path d="M15 7.50065C16.3808 7.50065 17.5 6.56732 17.5 5.41732C17.5 4.26732 16.3808 3.33398 15 3.33398M5 7.50065C3.61917 7.50065 2.5 6.56732 2.5 5.41732C2.5 4.26732 3.61917 3.33398 5 3.33398" stroke="url(#paint1_linear_346_1875)" stroke-width="1.25" stroke-linecap="round"/>
<path d="M10 17.5007C12.7614 17.5007 15 16.0083 15 14.1673C15 12.3264 12.7614 10.834 10 10.834C7.23858 10.834 5 12.3264 5 14.1673C5 16.0083 7.23858 17.5007 10 17.5007Z" stroke="url(#paint2_linear_346_1875)" stroke-width="1.25"/>
<path d="M16.6654 15.8337C18.127 15.5128 19.1654 14.7012 19.1654 13.7503C19.1654 12.7995 18.127 11.9878 16.6654 11.667M3.33203 15.8337C1.87036 15.5128 0.832031 14.7012 0.832031 13.7503C0.832031 12.7995 1.87036 11.9878 3.33203 11.667" stroke="url(#paint3_linear_346_1875)" stroke-width="1.25" stroke-linecap="round"/>
</g>
<defs>
<linearGradient id="paint0_linear_346_1875" x1="9.9974" y1="1.66699" x2="9.9974" y2="8.33366" gradientUnits="userSpaceOnUse">
<stop stop-color="#B5020F"/>
<stop offset="1" stop-color="#302E2E"/>
</linearGradient>
<linearGradient id="paint1_linear_346_1875" x1="10" y1="3.33398" x2="10" y2="7.50065" gradientUnits="userSpaceOnUse">
<stop stop-color="#B5020F"/>
<stop offset="1" stop-color="#302E2E"/>
</linearGradient>
<linearGradient id="paint2_linear_346_1875" x1="10" y1="10.834" x2="10" y2="17.5007" gradientUnits="userSpaceOnUse">
<stop stop-color="#B5020F"/>
<stop offset="1" stop-color="#302E2E"/>
</linearGradient>
<linearGradient id="paint3_linear_346_1875" x1="9.9987" y1="11.667" x2="9.9987" y2="15.8337" gradientUnits="userSpaceOnUse">
<stop stop-color="#B5020F"/>
<stop offset="1" stop-color="#302E2E"/>
</linearGradient>
<clipPath id="clip0_346_1875">
<rect width="20" height="20" fill="white"/>
</clipPath>
</defs>
</svg>
