<svg width="24" height="24" viewBox="0 0 24 24" fill="none" xmlns="http://www.w3.org/2000/svg">
<path d="M7.37809 12.556L6.81609 13.053C6.88305 13.1285 6.96456 13.1897 7.05574 13.233C7.14691 13.2763 7.24589 13.3007 7.34673 13.3048C7.44757 13.3089 7.5482 13.2926 7.6426 13.2569C7.73699 13.2212 7.82321 13.1668 7.89609 13.097L7.37809 12.556ZM9.51909 11.541C9.65604 11.4019 9.73337 11.2149 9.73463 11.0197C9.7359 10.8245 9.66101 10.6365 9.52587 10.4956C9.39073 10.3547 9.20599 10.2721 9.01091 10.2653C8.81582 10.2584 8.62576 10.3279 8.48109 10.459L9.51909 11.541ZM6.56109 10.503C6.49707 10.4251 6.418 10.3609 6.3286 10.3143C6.23921 10.2677 6.14133 10.2395 6.04082 10.2316C5.94031 10.2236 5.83922 10.236 5.74361 10.268C5.648 10.3 5.55982 10.351 5.48435 10.4179C5.40888 10.4847 5.34766 10.5661 5.30437 10.6572C5.26107 10.7482 5.23657 10.8471 5.23235 10.9478C5.22812 11.0486 5.24425 11.1491 5.27978 11.2435C5.3153 11.3378 5.36948 11.4241 5.43909 11.497L6.56109 10.503ZM14.9311 9.00901C14.9979 9.08137 15.0784 9.13985 15.1678 9.18112C15.2573 9.22239 15.354 9.24564 15.4524 9.24954C15.5508 9.25344 15.6491 9.23792 15.7415 9.20385C15.8339 9.16979 15.9187 9.11785 15.9911 9.05101C16.0634 8.98417 16.1219 8.90373 16.1632 8.81428C16.2045 8.72484 16.2277 8.62814 16.2316 8.52971C16.2355 8.43128 16.22 8.33304 16.1859 8.24061C16.1519 8.14818 16.0999 8.06337 16.0331 7.99101L14.9311 9.00901ZM12.0451 6.25001C9.05909 6.25001 6.62909 8.65301 6.62909 11.63H8.12909C8.12909 9.49301 9.87609 7.75001 12.0451 7.75001V6.25001ZM6.62909 11.63V12.556H8.12909V11.63H6.62909ZM7.89809 13.097L9.52009 11.541L8.48209 10.459L6.86009 12.014L7.89809 13.097ZM7.94009 12.058L6.56109 10.503L5.43909 11.497L6.81609 13.053L7.94009 12.058ZM16.0331 7.99101C15.5245 7.44078 14.9083 7.00198 14.2216 6.70232C13.5348 6.40265 12.7934 6.24864 12.0441 6.25001V7.75001C12.5866 7.74868 13.1235 7.85998 13.6208 8.07686C14.1181 8.29375 14.5649 8.6115 14.9331 9.01001L16.0331 7.99101ZM16.6191 11.444L17.1791 10.946C17.1121 10.8706 17.0305 10.8094 16.9393 10.7662C16.8481 10.7231 16.7491 10.6987 16.6482 10.6947C16.5474 10.6907 16.4468 10.7071 16.3524 10.7429C16.2581 10.7787 16.1719 10.8331 16.0991 10.903L16.6191 11.444ZM14.4801 12.458C14.3366 12.5959 14.2538 12.7852 14.2499 12.9842C14.2459 13.1831 14.3212 13.3755 14.4591 13.519C14.597 13.6625 14.7863 13.7453 14.9852 13.7492C15.1842 13.7532 15.3766 13.6779 15.5201 13.54L14.4801 12.458ZM17.4401 13.498C17.5739 13.6405 17.758 13.7251 17.9533 13.7339C18.1486 13.7426 18.3395 13.6748 18.4855 13.5448C18.6315 13.4148 18.721 13.233 18.7349 13.0381C18.7489 12.8431 18.6861 12.6504 18.5601 12.501L17.4401 13.498ZM9.04709 15.005C8.91023 14.8633 8.72311 14.7812 8.52617 14.7763C8.32923 14.7714 8.13828 14.8442 7.99459 14.979C7.8509 15.1138 7.76599 15.2997 7.75823 15.4965C7.75046 15.6933 7.82046 15.8853 7.95309 16.031L9.04709 15.005ZM11.9351 17.75C14.9281 17.75 17.3691 15.35 17.3691 12.37H15.8691C15.8691 14.505 14.1161 16.25 11.9351 16.25V17.75ZM17.3691 12.37V11.444H15.8691V12.37H17.3691ZM16.0991 10.903L14.4801 12.458L15.5201 13.54L17.1381 11.985L16.0991 10.903ZM16.0591 11.943L17.4391 13.497L18.5611 12.501L17.1791 10.946L16.0591 11.943ZM7.95209 16.03C8.46283 16.5738 9.07977 17.007 9.76473 17.3027C10.4497 17.5984 11.188 17.7503 11.9341 17.749V16.249C10.7911 16.249 9.76409 15.769 9.04609 15.004L7.95209 16.03Z" fill="#34D399"/>
<path d="M12 22C17.5228 22 22 17.5228 22 12C22 6.47715 17.5228 2 12 2C6.47715 2 2 6.47715 2 12C2 17.5228 6.47715 22 12 22Z" stroke="#34D399" stroke-width="1.5"/>
</svg>
